<?xml version="1.0" encoding="UTF-8"?>
<!DOCTYPE svg PUBLIC "-//W3C//DTD SVG 1.1//EN" "http://www.w3.org/Graphics/SVG/1.1/DTD/svg11.dtd">
<svg xmlns="http://www.w3.org/2000/svg" version="1.1" width="374px" height="400px" style="shape-rendering:geometricPrecision; text-rendering:geometricPrecision; image-rendering:optimizeQuality; fill-rule:evenodd; clip-rule:evenodd" xmlns:xlink="http://www.w3.org/1999/xlink">
<g><path style="opacity:0.985" fill="#13b8e2" d="M 199.5,3.5 C 199.665,6.51838 199.498,9.51838 199,12.5C 197.926,13.6184 196.76,14.6184 195.5,15.5C 196.242,16.2868 197.075,16.9535 198,17.5C 198.887,22.0717 198.22,26.405 196,30.5C 195.667,29.8333 195.333,29.1667 195,28.5C 194.369,31.3926 193.536,34.2259 192.5,37C 194.002,39.0057 193.669,40.6723 191.5,42C 192.448,42.4828 193.448,42.6495 194.5,42.5C 194.603,45.2186 194.269,47.8853 193.5,50.5C 193.818,51.6473 194.484,52.4806 195.5,53C 190.398,59.6508 188.565,67.1508 190,75.5C 191.395,76.8146 192.395,76.4812 193,74.5C 193.167,75 193.333,75.5 193.5,76C 191.626,77.8604 190.626,80.1937 190.5,83C 189.967,87.8299 189.467,92.6632 189,97.5C 188.667,95.8333 188.333,94.1667 188,92.5C 187.667,92.8333 187.333,93.1667 187,93.5C 186.755,103.2 186.255,112.866 185.5,122.5C 184.5,122.5 183.5,122.5 182.5,122.5C 182.5,123.833 182.5,125.167 182.5,126.5C 181.5,126.5 180.5,126.5 179.5,126.5C 179.34,128.199 179.506,129.866 180,131.5C 180.915,130.672 181.581,129.672 182,128.5C 182.83,134.196 182.663,139.863 181.5,145.5C 178.046,147.557 177.046,150.39 178.5,154C 175.681,156.575 172.681,158.908 169.5,161C 170.877,166.025 168.877,168.192 163.5,167.5C 162.368,165.533 162.701,163.7 164.5,162C 163.782,159.539 163.115,157.039 162.5,154.5C 164.632,152.605 164.966,150.438 163.5,148C 164.087,144.614 164.754,141.28 165.5,138C 164.473,137.487 163.473,136.987 162.5,136.5C 164.109,135.229 165.942,134.229 168,133.5C 169.337,118.2 169.837,102.867 169.5,87.5C 170.727,90.4162 171.893,93.4162 173,96.5C 176.703,93.1325 180.036,89.4658 183,85.5C 182.414,72.8738 182.414,60.2071 183,47.5C 185.134,44.3872 184.634,41.7205 181.5,39.5C 182.747,37.9579 182.747,36.4579 181.5,35C 185.552,31.1308 188.552,26.6308 190.5,21.5C 187.147,17.4048 186.647,13.0715 189,8.5C 188.586,8.95735 188.086,9.29069 187.5,9.5C 186.938,6.77147 185.272,5.27147 182.5,5C 179.854,4.50258 177.187,4.33591 174.5,4.5C 182.603,1.01379 190.937,0.680454 199.5,3.5 Z"/></g>
<g><path style="opacity:0.969" fill="#11b3ea" d="M 174.5,4.5 C 177.187,4.33591 179.854,4.50258 182.5,5C 185.272,5.27147 186.938,6.77147 187.5,9.5C 188.086,9.29069 188.586,8.95735 189,8.5C 186.647,13.0715 187.147,17.4048 190.5,21.5C 188.552,26.6308 185.552,31.1308 181.5,35C 182.747,36.4579 182.747,37.9579 181.5,39.5C 184.634,41.7205 185.134,44.3872 183,47.5C 182.414,60.2071 182.414,72.8738 183,85.5C 180.036,89.4658 176.703,93.1325 173,96.5C 171.893,93.4162 170.727,90.4162 169.5,87.5C 165.232,84.6905 160.898,81.8572 156.5,79C 154.959,77.6288 153.625,76.1288 152.5,74.5C 156.069,76.1185 159.736,77.4519 163.5,78.5C 164.401,80.7271 166.067,81.7271 168.5,81.5C 168.728,77.6095 168.394,73.7762 167.5,70C 168.501,66.331 169.501,62.6643 170.5,59C 169.442,55.5511 168.108,52.2178 166.5,49C 167.253,47.513 168.086,47.3463 169,48.5C 169.735,46.1287 170.568,43.7954 171.5,41.5C 171.023,40.5224 170.357,39.6891 169.5,39C 171.81,36.3359 172.144,33.3359 170.5,30C 171.078,28.1886 171.578,26.3553 172,24.5C 173.848,22.982 175.348,21.1487 176.5,19C 174.924,18.5604 173.59,17.727 172.5,16.5C 169.286,19.7979 167.619,23.7979 167.5,28.5C 165.173,28.7529 163.173,28.0863 161.5,26.5C 163.757,23.7179 164.423,20.7179 163.5,17.5C 158.764,20.7456 155.264,25.079 153,30.5C 152.282,29.5494 151.449,29.3828 150.5,30C 147.642,31.6941 145.309,33.8607 143.5,36.5C 147.063,19.2705 157.396,8.60388 174.5,4.5 Z"/></g>
<g><path style="opacity:0.985" fill="#09bcdc" d="M 199.5,3.5 C 204.607,4.55124 208.941,6.88458 212.5,10.5C 211.842,13.1555 211.175,15.8222 210.5,18.5C 210.783,21.7423 211.617,22.0756 213,19.5C 214.506,26.4333 214.839,33.4333 214,40.5C 212.883,39.0506 212.216,37.3839 212,35.5C 211.667,37.8333 211.333,40.1667 211,42.5C 209.956,41.3774 209.29,40.0441 209,38.5C 208.955,41.334 208.121,43.834 206.5,46C 207.576,47.7261 207.743,49.5594 207,51.5C 206.333,52.8333 205.667,52.8333 205,51.5C 204.5,52.5 204,53.5 203.5,54.5C 204.244,57.443 204.744,60.443 205,63.5C 205.654,62.3044 206.154,62.3044 206.5,63.5C 204.074,66.7161 204.741,69.3828 208.5,71.5C 209.246,72.7362 209.579,74.0695 209.5,75.5C 211.199,75.3398 212.866,75.5065 214.5,76C 211.619,77.0412 208.619,77.5412 205.5,77.5C 205.167,77.8333 204.833,78.1667 204.5,78.5C 205.853,79.5237 206.52,80.857 206.5,82.5C 205.178,82.33 204.011,82.6634 203,83.5C 201.746,87.7703 200.746,92.1036 200,96.5C 199.333,95.1667 198.667,95.1667 198,96.5C 197.627,98.6982 197.127,100.865 196.5,103C 197.572,107.124 197.738,111.29 197,115.5C 196.024,107.862 195.357,100.195 195,92.5C 193.959,107.816 193.292,123.149 193,138.5C 192.738,127.805 192.071,117.138 191,106.5C 190.71,110.863 190.21,115.196 189.5,119.5C 190.995,130.1 190.662,140.6 188.5,151C 189.574,151.739 190.241,152.739 190.5,154C 189.873,156.135 189.373,158.302 189,160.5C 186.827,161.933 184.66,163.266 182.5,164.5C 174.325,166.587 166.992,170.254 160.5,175.5C 160.394,172.385 161.394,169.719 163.5,167.5C 168.877,168.192 170.877,166.025 169.5,161C 172.681,158.908 175.681,156.575 178.5,154C 177.046,150.39 178.046,147.557 181.5,145.5C 182.663,139.863 182.83,134.196 182,128.5C 181.581,129.672 180.915,130.672 180,131.5C 179.506,129.866 179.34,128.199 179.5,126.5C 180.5,126.5 181.5,126.5 182.5,126.5C 182.5,125.167 182.5,123.833 182.5,122.5C 183.5,122.5 184.5,122.5 185.5,122.5C 186.255,112.866 186.755,103.2 187,93.5C 187.333,93.1667 187.667,92.8333 188,92.5C 188.333,94.1667 188.667,95.8333 189,97.5C 189.467,92.6632 189.967,87.8299 190.5,83C 190.626,80.1937 191.626,77.8604 193.5,76C 193.333,75.5 193.167,75 193,74.5C 192.395,76.4812 191.395,76.8146 190,75.5C 188.565,67.1508 190.398,59.6508 195.5,53C 194.484,52.4806 193.818,51.6473 193.5,50.5C 194.269,47.8853 194.603,45.2186 194.5,42.5C 193.448,42.6495 192.448,42.4828 191.5,42C 193.669,40.6723 194.002,39.0057 192.5,37C 193.536,34.2259 194.369,31.3926 195,28.5C 195.333,29.1667 195.667,29.8333 196,30.5C 198.22,26.405 198.887,22.0717 198,17.5C 197.075,16.9535 196.242,16.2868 195.5,15.5C 196.76,14.6184 197.926,13.6184 199,12.5C 199.498,9.51838 199.665,6.51838 199.5,3.5 Z"/></g>
<g><path style="opacity:0.962" fill="#11c0d6" d="M 212.5,10.5 C 223.184,16.2162 229.184,25.2162 230.5,37.5C 230.688,43.8885 230.188,50.2218 229,56.5C 226.798,60.6063 225.298,64.9396 224.5,69.5C 219.802,76.695 213.636,82.3617 206,86.5C 204.647,99.4584 204.147,112.458 204.5,125.5C 202.373,131.854 201.207,138.521 201,145.5C 200.581,144.328 199.915,143.328 199,142.5C 198.904,145.451 198.071,148.118 196.5,150.5C 198.365,151.666 200.032,151.333 201.5,149.5C 202.395,151.246 203.062,153.08 203.5,155C 200.466,158.402 199.799,162.236 201.5,166.5C 195.253,165.109 188.919,164.442 182.5,164.5C 184.66,163.266 186.827,161.933 189,160.5C 189.373,158.302 189.873,156.135 190.5,154C 190.241,152.739 189.574,151.739 188.5,151C 190.662,140.6 190.995,130.1 189.5,119.5C 190.21,115.196 190.71,110.863 191,106.5C 192.071,117.138 192.738,127.805 193,138.5C 193.292,123.149 193.959,107.816 195,92.5C 195.357,100.195 196.024,107.862 197,115.5C 197.738,111.29 197.572,107.124 196.5,103C 197.127,100.865 197.627,98.6982 198,96.5C 198.667,95.1667 199.333,95.1667 200,96.5C 200.746,92.1036 201.746,87.7703 203,83.5C 204.011,82.6634 205.178,82.33 206.5,82.5C 206.52,80.857 205.853,79.5237 204.5,78.5C 204.833,78.1667 205.167,77.8333 205.5,77.5C 208.619,77.5412 211.619,77.0412 214.5,76C 212.866,75.5065 211.199,75.3398 209.5,75.5C 209.579,74.0695 209.246,72.7362 208.5,71.5C 204.741,69.3828 204.074,66.7161 206.5,63.5C 206.154,62.3044 205.654,62.3044 205,63.5C 204.744,60.443 204.244,57.443 203.5,54.5C 204,53.5 204.5,52.5 205,51.5C 205.667,52.8333 206.333,52.8333 207,51.5C 207.743,49.5594 207.576,47.7261 206.5,46C 208.121,43.834 208.955,41.334 209,38.5C 209.29,40.0441 209.956,41.3774 211,42.5C 211.333,40.1667 211.667,37.8333 212,35.5C 212.216,37.3839 212.883,39.0506 214,40.5C 214.839,33.4333 214.506,26.4333 213,19.5C 211.617,22.0756 210.783,21.7423 210.5,18.5C 211.175,15.8222 211.842,13.1555 212.5,10.5 Z"/></g>
<g><path style="opacity:0.994" fill="#12b0ef" d="M 163.5,78.5 C 164.097,78.2648 164.43,77.7648 164.5,77C 162.954,75.527 161.954,73.6936 161.5,71.5C 161.667,70.5 161.833,69.5 162,68.5C 162.216,70.3839 162.883,72.0506 164,73.5C 164.265,69.1717 164.098,64.8383 163.5,60.5C 163.968,55.4136 164.468,50.4136 165,45.5C 161.912,43.7059 158.746,42.0392 155.5,40.5C 153.793,44.1358 152.626,44.1358 152,40.5C 150.837,42.2852 150.17,44.2852 150,46.5C 147.73,38.841 146.396,38.841 146,46.5C 144.916,47.6651 144.083,48.9984 143.5,50.5C 144.393,53.0841 144.726,55.7508 144.5,58.5C 141.037,51.409 140.704,44.0756 143.5,36.5C 145.309,33.8607 147.642,31.6941 150.5,30C 151.449,29.3828 152.282,29.5494 153,30.5C 155.264,25.079 158.764,20.7456 163.5,17.5C 164.423,20.7179 163.757,23.7179 161.5,26.5C 163.173,28.0863 165.173,28.7529 167.5,28.5C 167.619,23.7979 169.286,19.7979 172.5,16.5C 173.59,17.727 174.924,18.5604 176.5,19C 175.348,21.1487 173.848,22.982 172,24.5C 171.578,26.3553 171.078,28.1886 170.5,30C 172.144,33.3359 171.81,36.3359 169.5,39C 170.357,39.6891 171.023,40.5224 171.5,41.5C 170.568,43.7954 169.735,46.1287 169,48.5C 168.086,47.3463 167.253,47.513 166.5,49C 168.108,52.2178 169.442,55.5511 170.5,59C 169.501,62.6643 168.501,66.331 167.5,70C 168.394,73.7762 168.728,77.6095 168.5,81.5C 166.067,81.7271 164.401,80.7271 163.5,78.5 Z"/></g>
<g><path style="opacity:0.978" fill="#0aa9f1" d="M 163.5,78.5 C 159.736,77.4519 156.069,76.1185 152.5,74.5C 148.249,69.9974 145.582,64.664 144.5,58.5C 144.726,55.7508 144.393,53.0841 143.5,50.5C 144.083,48.9984 144.916,47.6651 146,46.5C 146.396,38.841 147.73,38.841 150,46.5C 150.17,44.2852 150.837,42.2852 152,40.5C 152.626,44.1358 153.793,44.1358 155.5,40.5C 158.746,42.0392 161.912,43.7059 165,45.5C 164.468,50.4136 163.968,55.4136 163.5,60.5C 164.098,64.8383 164.265,69.1717 164,73.5C 162.883,72.0506 162.216,70.3839 162,68.5C 161.833,69.5 161.667,70.5 161.5,71.5C 161.954,73.6936 162.954,75.527 164.5,77C 164.43,77.7648 164.097,78.2648 163.5,78.5 Z"/></g>
<g><path style="opacity:0.863" fill="#57c9d1" d="M 230.5,37.5 C 232.957,43.6339 233.123,49.9672 231,56.5C 229.862,61.4426 227.695,65.7759 224.5,69.5C 225.298,64.9396 226.798,60.6063 229,56.5C 230.188,50.2218 230.688,43.8885 230.5,37.5 Z"/></g>
<g><path style="opacity:0.987" fill="#1586fa" d="M 65.5,79.5 C 67.2874,83.3117 67.6207,87.145 66.5,91C 67.959,93.9813 68.6256,97.1479 68.5,100.5C 67.4566,111.769 65.4566,122.769 62.5,133.5C 62.9766,134.931 63.6433,136.264 64.5,137.5C 67.0712,136.2 68.7379,137.033 69.5,140C 66.5782,145.209 65.9115,150.709 67.5,156.5C 65.7868,157.635 65.1201,159.302 65.5,161.5C 58.0134,165.007 50.3468,166.007 42.5,164.5C 44.9496,164.702 47.283,164.369 49.5,163.5C 52.5215,161.098 55.8548,160.265 59.5,161C 60.0585,160.275 60.3918,159.442 60.5,158.5C 59.8966,156.128 58.8966,153.961 57.5,152C 57.7355,151.127 58.0688,150.293 58.5,149.5C 56.2868,146.457 54.2868,143.29 52.5,140C 52.6448,139.228 52.9781,138.561 53.5,138C 51.8122,135.175 50.9789,132.009 51,128.5C 49.3409,127.183 48.1743,125.517 47.5,123.5C 49.875,121.417 51.2084,118.75 51.5,115.5C 50.3859,113.215 49.0526,111.048 47.5,109C 50.1654,104.586 51.1654,99.7526 50.5,94.5C 52.1238,94.6399 53.2904,93.9733 54,92.5C 54.4966,90.1902 54.6633,87.8568 54.5,85.5C 49.365,86.0486 47.6983,84.0486 49.5,79.5C 46.1667,79.5 42.8333,79.5 39.5,79.5C 39.5,78.8333 39.5,78.1667 39.5,77.5C 48.3472,75.8729 57.0139,76.5395 65.5,79.5 Z"/></g>
<g><path style="opacity:0.968" fill="#20e593" d="M 345.5,81.5 C 343.409,81.6816 341.409,81.3482 339.5,80.5C 337.833,81.8333 336.167,83.1667 334.5,84.5C 333.109,83.3554 331.776,83.3554 330.5,84.5C 330.5,86.1667 330.5,87.8333 330.5,89.5C 331.719,88.7366 332.719,87.7366 333.5,86.5C 333.833,86.8333 334.167,87.1667 334.5,87.5C 332.517,89.9837 330.35,92.3171 328,94.5C 327.409,95.4835 327.743,96.1501 329,96.5C 329.95,95.9777 330.784,95.311 331.5,94.5C 331.833,94.8333 332.167,95.1667 332.5,95.5C 330.36,98.8073 328.026,101.974 325.5,105C 327.417,104.973 329.084,104.139 330.5,102.5C 330.833,102.833 331.167,103.167 331.5,103.5C 328.959,107.252 325.959,110.585 322.5,113.5C 323.274,114.711 324.107,114.711 325,113.5C 325.167,114 325.333,114.5 325.5,115C 323.925,116.12 322.925,117.62 322.5,119.5C 323.108,122.145 323.608,124.812 324,127.5C 325.008,127.982 326.175,128.148 327.5,128C 325.074,130.635 323.741,133.801 323.5,137.5C 324.833,138.167 326.167,138.833 327.5,139.5C 326.092,140.243 324.759,141.077 323.5,142C 324.025,142.692 324.692,143.192 325.5,143.5C 326.62,142.167 327.953,141.667 329.5,142C 326.462,144.703 323.795,147.703 321.5,151C 323.047,151.333 324.38,150.833 325.5,149.5C 326.167,150.5 326.833,151.5 327.5,152.5C 327.976,149.816 328.976,147.483 330.5,145.5C 330.402,146.616 330.902,147.616 332,148.5C 332.772,148.355 333.439,148.022 334,147.5C 334.333,148.833 334.667,150.167 335,151.5C 336.743,149.025 337.743,149.025 338,151.5C 336.833,152.667 335.667,153.833 334.5,155C 332.887,155.089 331.72,154.255 331,152.5C 328.852,153.805 327.352,155.638 326.5,158C 327,158.5 327.5,159 328,159.5C 329.693,155.678 331.027,156.011 332,160.5C 332.419,159.328 333.085,158.328 334,157.5C 334.333,159.167 334.667,160.833 335,162.5C 335.671,163.252 336.504,163.586 337.5,163.5C 335.393,164.468 333.059,164.802 330.5,164.5C 324.774,163.888 319.107,162.555 313.5,160.5C 312.602,157.518 312.435,154.518 313,151.5C 312.189,152.96 311.355,153.293 310.5,152.5C 311.248,150.668 312.248,149.001 313.5,147.5C 311.997,147.165 310.664,147.165 309.5,147.5C 311.098,144.399 313.265,141.732 316,139.5C 316.688,138.668 316.521,138.002 315.5,137.5C 314.252,138.04 313.085,138.707 312,139.5C 311.651,142.714 310.151,144.047 307.5,143.5C 309.475,140.391 311.808,137.557 314.5,135C 313.004,134.493 311.837,134.993 311,136.5C 310.833,136.167 310.667,135.833 310.5,135.5C 312.226,133.772 313.559,131.772 314.5,129.5C 314.167,129.167 313.833,128.833 313.5,128.5C 311.465,130.912 310.465,130.245 310.5,126.5C 310.915,121.456 310.915,116.456 310.5,111.5C 312.563,107.401 313.897,103.068 314.5,98.5C 315.421,96.244 317.088,95.244 319.5,95.5C 319.762,94.0222 319.429,92.6888 318.5,91.5C 317.264,92.2458 315.93,92.5792 314.5,92.5C 313.092,88.3141 312.425,83.9808 312.5,79.5C 314.38,79.7709 315.713,79.1042 316.5,77.5C 326.094,75.6373 335.427,76.4707 344.5,80C 345.056,80.3826 345.389,80.8826 345.5,81.5 Z"/></g>
<g><path style="opacity:0.993" fill="#0781fa" d="M 39.5,79.5 C 42.8333,79.5 46.1667,79.5 49.5,79.5C 47.6983,84.0486 49.365,86.0486 54.5,85.5C 54.6633,87.8568 54.4966,90.1902 54,92.5C 53.2904,93.9733 52.1238,94.6399 50.5,94.5C 51.1654,99.7526 50.1654,104.586 47.5,109C 49.0526,111.048 50.3859,113.215 51.5,115.5C 51.2084,118.75 49.875,121.417 47.5,123.5C 48.1743,125.517 49.3409,127.183 51,128.5C 50.9789,132.009 51.8122,135.175 53.5,138C 52.9781,138.561 52.6448,139.228 52.5,140C 54.2868,143.29 56.2868,146.457 58.5,149.5C 58.0688,150.293 57.7355,151.127 57.5,152C 58.8966,153.961 59.8966,156.128 60.5,158.5C 60.3918,159.442 60.0585,160.275 59.5,161C 55.8548,160.265 52.5215,161.098 49.5,163.5C 49.2023,157.732 47.7023,152.065 45,146.5C 41.7147,141.546 38.048,136.88 34,132.5C 33,128.5 32,124.5 31,120.5C 29.7367,118.203 27.9034,117.37 25.5,118C 23.8333,119 22.1667,120 20.5,121C 16.7778,121.238 13.1111,121.738 9.5,122.5C 7.7555,119.908 6.08883,119.908 4.5,122.5C 4.5,120.5 4.5,118.5 4.5,116.5C 23.9436,118.725 34.2769,110.058 35.5,90.5C 34.9865,87.4478 34.3198,84.4478 33.5,81.5C 35.1016,79.9261 37.1016,79.2594 39.5,79.5 Z"/></g>
<g><path style="opacity:0.988" fill="#1fe39a" d="M 316.5,77.5 C 315.713,79.1042 314.38,79.7709 312.5,79.5C 312.425,83.9808 313.092,88.3141 314.5,92.5C 315.93,92.5792 317.264,92.2458 318.5,91.5C 319.429,92.6888 319.762,94.0222 319.5,95.5C 317.088,95.244 315.421,96.244 314.5,98.5C 313.897,103.068 312.563,107.401 310.5,111.5C 310.915,116.456 310.915,121.456 310.5,126.5C 310.465,130.245 311.465,130.912 313.5,128.5C 313.833,128.833 314.167,129.167 314.5,129.5C 313.559,131.772 312.226,133.772 310.5,135.5C 310.667,135.833 310.833,136.167 311,136.5C 311.837,134.993 313.004,134.493 314.5,135C 311.808,137.557 309.475,140.391 307.5,143.5C 310.151,144.047 311.651,142.714 312,139.5C 313.085,138.707 314.252,138.04 315.5,137.5C 316.521,138.002 316.688,138.668 316,139.5C 313.265,141.732 311.098,144.399 309.5,147.5C 310.664,147.165 311.997,147.165 313.5,147.5C 312.248,149.001 311.248,150.668 310.5,152.5C 311.355,153.293 312.189,152.96 313,151.5C 312.435,154.518 312.602,157.518 313.5,160.5C 319.107,162.555 324.774,163.888 330.5,164.5C 319.289,166.198 309.289,163.531 300.5,156.5C 300.5,155.833 300.5,155.167 300.5,154.5C 300.253,151.495 301.253,148.995 303.5,147C 302.552,146.517 301.552,146.351 300.5,146.5C 300.383,144.516 301.05,142.85 302.5,141.5C 301.397,141.002 300.397,140.669 299.5,140.5C 300.634,138.538 300.634,136.538 299.5,134.5C 300.065,132.595 301.065,130.929 302.5,129.5C 302.023,128.522 301.357,127.689 300.5,127C 301.357,126.311 302.023,125.478 302.5,124.5C 300.364,123.528 299.197,121.861 299,119.5C 298.333,120.167 297.667,120.833 297,121.5C 296.735,119.837 297.235,118.337 298.5,117C 297.376,116.751 296.376,116.251 295.5,115.5C 296.645,114.109 296.645,112.776 295.5,111.5C 293.96,113.387 292.293,115.22 290.5,117C 289.517,117.591 288.85,117.257 288.5,116C 290.763,114.757 291.597,112.924 291,110.5C 288.92,113.284 288.253,112.951 289,109.5C 290.983,108.234 291.983,106.568 292,104.5C 289.69,106.918 289.024,106.252 290,102.5C 293.151,99.593 296.484,96.9264 300,94.5C 300.326,91.6677 299.826,89.001 298.5,86.5C 303.669,81.9156 309.669,78.9156 316.5,77.5 Z"/></g>
<g><path style="opacity:0.987" fill="#479dfc" d="M 39.5,77.5 C 39.5,78.1667 39.5,78.8333 39.5,79.5C 37.1016,79.2594 35.1016,79.9261 33.5,81.5C 31.5349,88.7605 30.8682,96.4271 31.5,104.5C 29.5,104.5 27.5,104.5 25.5,104.5C 25.128,108.043 23.128,110.21 19.5,111C 16.8276,111.834 14.161,112.668 11.5,113.5C 8.84012,112.297 6.17345,112.297 3.5,113.5C 3.36596,111.708 3.69929,110.042 4.5,108.5C 10.3892,106.995 16.0558,104.995 21.5,102.5C 23.4783,95.9637 24.8117,89.297 25.5,82.5C 29.7529,79.7083 34.4196,78.0417 39.5,77.5 Z"/></g>
<g><path style="opacity:0.996" fill="#25e98f" d="M 345.5,81.5 C 352.351,83.5805 357.685,87.5805 361.5,93.5C 358.236,95.4306 356.403,94.4306 356,90.5C 354.748,92.0009 353.748,93.6675 353,95.5C 352.781,94.062 352.281,92.7287 351.5,91.5C 350.847,95.2348 350.014,98.9015 349,102.5C 348.581,101.328 347.915,100.328 347,99.5C 347.227,101.574 347.061,103.574 346.5,105.5C 347.391,106.59 348.391,106.59 349.5,105.5C 350.192,106.025 350.692,106.692 351,107.5C 351.784,110.76 351.617,113.927 350.5,117C 352.433,117.783 353.933,117.283 355,115.5C 355.5,116 356,116.5 356.5,117C 355.044,118.745 353.711,120.578 352.5,122.5C 353.274,123.711 354.107,123.711 355,122.5C 355.442,130.524 355.442,138.524 355,146.5C 356.806,148.952 358.306,148.619 359.5,145.5C 360.518,146.193 361.518,146.859 362.5,147.5C 356.269,156.054 347.936,161.387 337.5,163.5C 336.504,163.586 335.671,163.252 335,162.5C 334.667,160.833 334.333,159.167 334,157.5C 333.085,158.328 332.419,159.328 332,160.5C 331.027,156.011 329.693,155.678 328,159.5C 327.5,159 327,158.5 326.5,158C 327.352,155.638 328.852,153.805 331,152.5C 331.72,154.255 332.887,155.089 334.5,155C 335.667,153.833 336.833,152.667 338,151.5C 337.743,149.025 336.743,149.025 335,151.5C 334.667,150.167 334.333,148.833 334,147.5C 333.439,148.022 332.772,148.355 332,148.5C 330.902,147.616 330.402,146.616 330.5,145.5C 328.976,147.483 327.976,149.816 327.5,152.5C 326.833,151.5 326.167,150.5 325.5,149.5C 324.38,150.833 323.047,151.333 321.5,151C 323.795,147.703 326.462,144.703 329.5,142C 327.953,141.667 326.62,142.167 325.5,143.5C 324.692,143.192 324.025,142.692 323.5,142C 324.759,141.077 326.092,140.243 327.5,139.5C 326.167,138.833 324.833,138.167 323.5,137.5C 323.741,133.801 325.074,130.635 327.5,128C 326.175,128.148 325.008,127.982 324,127.5C 323.608,124.812 323.108,122.145 322.5,119.5C 322.925,117.62 323.925,116.12 325.5,115C 325.333,114.5 325.167,114 325,113.5C 324.107,114.711 323.274,114.711 322.5,113.5C 325.959,110.585 328.959,107.252 331.5,103.5C 331.167,103.167 330.833,102.833 330.5,102.5C 329.084,104.139 327.417,104.973 325.5,105C 328.026,101.974 330.36,98.8073 332.5,95.5C 332.167,95.1667 331.833,94.8333 331.5,94.5C 330.784,95.311 329.95,95.9777 329,96.5C 327.743,96.1501 327.409,95.4835 328,94.5C 330.35,92.3171 332.517,89.9837 334.5,87.5C 334.167,87.1667 333.833,86.8333 333.5,86.5C 332.719,87.7366 331.719,88.7366 330.5,89.5C 330.5,87.8333 330.5,86.1667 330.5,84.5C 331.776,83.3554 333.109,83.3554 334.5,84.5C 336.167,83.1667 337.833,81.8333 339.5,80.5C 341.409,81.3482 343.409,81.6816 345.5,81.5 Z"/></g>
<g><path style="opacity:0.997" fill="#058bf9" d="M 65.5,79.5 C 69.1178,81.1373 72.4512,83.1373 75.5,85.5C 74.9569,85.56 74.6236,85.8933 74.5,86.5C 76.5,89.5 78.5,92.5 80.5,95.5C 79.624,96.2508 78.624,96.7508 77.5,97C 77.95,99.5006 78.95,101.667 80.5,103.5C 81.6658,114.485 81.8324,125.485 81,136.5C 79.8855,138 79.0521,139.667 78.5,141.5C 77.675,142.386 76.675,142.719 75.5,142.5C 75.3537,144.942 76.187,145.609 78,144.5C 78.5,145 79,145.5 79.5,146C 78.4258,146.739 77.7591,147.739 77.5,149C 79.0781,150.972 79.9115,153.138 80,155.5C 78.874,154.056 77.374,153.39 75.5,153.5C 72.6087,153.948 69.942,154.948 67.5,156.5C 65.9115,150.709 66.5782,145.209 69.5,140C 68.7379,137.033 67.0712,136.2 64.5,137.5C 63.6433,136.264 62.9766,134.931 62.5,133.5C 65.4566,122.769 67.4566,111.769 68.5,100.5C 68.6256,97.1479 67.959,93.9813 66.5,91C 67.6207,87.145 67.2874,83.3117 65.5,79.5 Z"/></g>
<g><path style="opacity:0.98" fill="#77b6fb" d="M 25.5,82.5 C 24.8117,89.297 23.4783,95.9637 21.5,102.5C 16.0558,104.995 10.3892,106.995 4.5,108.5C 5.32567,105.515 6.659,102.849 8.5,100.5C 11.1281,101.534 13.7948,101.201 16.5,99.5C 17.5386,95.8946 18.2053,92.2279 18.5,88.5C 20.1206,85.8291 22.4539,83.8291 25.5,82.5 Z"/></g>
<g><path style="opacity:0.977" fill="#1491f7" d="M 75.5,85.5 C 84.6733,92.1734 90.0066,101.173 91.5,112.5C 91.5,117.833 91.5,123.167 91.5,128.5C 90.519,133.129 90.3523,137.796 91,142.5C 91.8113,141.04 92.6446,140.707 93.5,141.5C 91.5,144.5 89.5,147.5 87.5,150.5C 87.9275,153.014 88.2608,155.514 88.5,158C 88.1667,158.5 87.8333,159 87.5,159.5C 84.4554,158.211 81.4554,157.878 78.5,158.5C 77.1825,158.179 75.8492,157.846 74.5,157.5C 71.6274,159.103 68.6274,160.436 65.5,161.5C 65.1201,159.302 65.7868,157.635 67.5,156.5C 69.942,154.948 72.6087,153.948 75.5,153.5C 77.374,153.39 78.874,154.056 80,155.5C 79.9115,153.138 79.0781,150.972 77.5,149C 77.7591,147.739 78.4258,146.739 79.5,146C 79,145.5 78.5,145 78,144.5C 76.187,145.609 75.3537,144.942 75.5,142.5C 76.675,142.719 77.675,142.386 78.5,141.5C 79.0521,139.667 79.8855,138 81,136.5C 81.8324,125.485 81.6658,114.485 80.5,103.5C 78.95,101.667 77.95,99.5006 77.5,97C 78.624,96.7508 79.624,96.2508 80.5,95.5C 78.5,92.5 76.5,89.5 74.5,86.5C 74.6236,85.8933 74.9569,85.56 75.5,85.5 Z"/></g>
<g><path style="opacity:0.969" fill="#17de9d" d="M 298.5,86.5 C 299.826,89.001 300.326,91.6677 300,94.5C 296.484,96.9264 293.151,99.593 290,102.5C 289.024,106.252 289.69,106.918 292,104.5C 291.983,106.568 290.983,108.234 289,109.5C 288.253,112.951 288.92,113.284 291,110.5C 291.597,112.924 290.763,114.757 288.5,116C 288.85,117.257 289.517,117.591 290.5,117C 292.293,115.22 293.96,113.387 295.5,111.5C 296.645,112.776 296.645,114.109 295.5,115.5C 296.376,116.251 297.376,116.751 298.5,117C 297.235,118.337 296.735,119.837 297,121.5C 297.667,120.833 298.333,120.167 299,119.5C 299.197,121.861 300.364,123.528 302.5,124.5C 302.023,125.478 301.357,126.311 300.5,127C 301.357,127.689 302.023,128.522 302.5,129.5C 301.065,130.929 300.065,132.595 299.5,134.5C 300.634,136.538 300.634,138.538 299.5,140.5C 300.397,140.669 301.397,141.002 302.5,141.5C 301.05,142.85 300.383,144.516 300.5,146.5C 301.552,146.351 302.552,146.517 303.5,147C 301.253,148.995 300.253,151.495 300.5,154.5C 297.9,153.532 295.566,152.199 293.5,150.5C 294.025,149.808 294.692,149.308 295.5,149C 292.149,146.493 290.982,143.327 292,139.5C 291.333,140.167 290.667,140.833 290,141.5C 289.323,138.473 288.99,134.807 289,130.5C 288.252,132.751 286.752,134.084 284.5,134.5C 285.094,132.145 286.094,129.978 287.5,128C 287.167,127.5 286.833,127 286.5,126.5C 285.833,127.167 285.167,127.833 284.5,128.5C 283.833,123.349 283.166,118.349 282.5,113.5C 283.503,101.812 288.836,92.8121 298.5,86.5 Z"/></g>
<g><path style="opacity:0.993" fill="#a3cdfb" d="M 18.5,88.5 C 18.2053,92.2279 17.5386,95.8946 16.5,99.5C 13.7948,101.201 11.1281,101.534 8.5,100.5C 10.7328,95.599 14.0661,91.599 18.5,88.5 Z"/></g>
<g><path style="opacity:0.975" fill="#33f293" d="M 361.5,93.5 C 374.448,111.403 374.781,129.403 362.5,147.5C 361.518,146.859 360.518,146.193 359.5,145.5C 358.306,148.619 356.806,148.952 355,146.5C 355.442,138.524 355.442,130.524 355,122.5C 354.107,123.711 353.274,123.711 352.5,122.5C 353.711,120.578 355.044,118.745 356.5,117C 356,116.5 355.5,116 355,115.5C 353.933,117.283 352.433,117.783 350.5,117C 351.617,113.927 351.784,110.76 351,107.5C 350.692,106.692 350.192,106.025 349.5,105.5C 348.391,106.59 347.391,106.59 346.5,105.5C 347.061,103.574 347.227,101.574 347,99.5C 347.915,100.328 348.581,101.328 349,102.5C 350.014,98.9015 350.847,95.2348 351.5,91.5C 352.281,92.7287 352.781,94.062 353,95.5C 353.748,93.6675 354.748,92.0009 356,90.5C 356.403,94.4306 358.236,95.4306 361.5,93.5 Z"/></g>
<g><path style="opacity:0.994" fill="#308ff9" d="M 33.5,81.5 C 34.3198,84.4478 34.9865,87.4478 35.5,90.5C 34.2769,110.058 23.9436,118.725 4.5,116.5C 4.5,118.5 4.5,120.5 4.5,122.5C 4.76781,124.099 4.43448,125.432 3.5,126.5C 2.33758,122.313 2.33758,117.98 3.5,113.5C 6.17345,112.297 8.84012,112.297 11.5,113.5C 14.161,112.668 16.8276,111.834 19.5,111C 23.128,110.21 25.128,108.043 25.5,104.5C 27.5,104.5 29.5,104.5 31.5,104.5C 30.8682,96.4271 31.5349,88.7605 33.5,81.5 Z"/></g>
<g><path style="opacity:0.991" fill="#0a79f9" d="M 49.5,163.5 C 47.283,164.369 44.9496,164.702 42.5,164.5C 33.7796,164.6 26.4462,161.6 20.5,155.5C 24.2821,156.55 27.9487,157.05 31.5,157C 32.5,158.667 33.5,160.333 34.5,162C 35.7932,162.49 37.1266,162.657 38.5,162.5C 36.8525,158.716 35.6859,154.716 35,150.5C 34.0805,150.07 33.2472,149.736 32.5,149.5C 32.8333,148.833 33.1667,148.167 33.5,147.5C 30.5297,147.005 28.1963,145.505 26.5,143C 25.2068,142.51 23.8734,142.343 22.5,142.5C 22.6816,140.409 22.3482,138.409 21.5,136.5C 22.1667,135.5 22.8333,134.5 23.5,133.5C 20.4426,131.046 18.1093,128.046 16.5,124.5C 14.694,125.859 13.194,125.525 12,123.5C 11.3848,125.116 10.3848,126.449 9,127.5C 8.66667,126.833 8.33333,126.167 8,125.5C 7.82382,129.688 7.32382,133.688 6.5,137.5C 3.94498,134.373 2.94498,130.706 3.5,126.5C 4.43448,125.432 4.76781,124.099 4.5,122.5C 6.08883,119.908 7.7555,119.908 9.5,122.5C 13.1111,121.738 16.7778,121.238 20.5,121C 22.1667,120 23.8333,119 25.5,118C 27.9034,117.37 29.7367,118.203 31,120.5C 32,124.5 33,128.5 34,132.5C 38.048,136.88 41.7147,141.546 45,146.5C 47.7023,152.065 49.2023,157.732 49.5,163.5 Z"/></g>
<g><path style="opacity:0.884" fill="#67aee6" d="M 91.5,112.5 C 93.1776,117.568 93.8443,122.902 93.5,128.5C 92.8333,128.5 92.1667,128.5 91.5,128.5C 91.5,123.167 91.5,117.833 91.5,112.5 Z"/></g>
<g><path style="opacity:0.994" fill="#0e73f9" d="M 20.5,155.5 C 18.9731,155.573 17.9731,154.906 17.5,153.5C 17.8333,149.167 15.8333,147.167 11.5,147.5C 8.78145,144.73 7.11478,141.396 6.5,137.5C 7.32382,133.688 7.82382,129.688 8,125.5C 8.33333,126.167 8.66667,126.833 9,127.5C 10.3848,126.449 11.3848,125.116 12,123.5C 13.194,125.525 14.694,125.859 16.5,124.5C 18.1093,128.046 20.4426,131.046 23.5,133.5C 22.8333,134.5 22.1667,135.5 21.5,136.5C 22.3482,138.409 22.6816,140.409 22.5,142.5C 23.8734,142.343 25.2068,142.51 26.5,143C 28.1963,145.505 30.5297,147.005 33.5,147.5C 33.1667,148.167 32.8333,148.833 32.5,149.5C 33.2472,149.736 34.0805,150.07 35,150.5C 35.6859,154.716 36.8525,158.716 38.5,162.5C 37.1266,162.657 35.7932,162.49 34.5,162C 33.5,160.333 32.5,158.667 31.5,157C 27.9487,157.05 24.2821,156.55 20.5,155.5 Z"/></g>
<g><path style="opacity:0.971" fill="#11c4cb" d="M 204.5,125.5 C 204.187,128.247 204.52,130.914 205.5,133.5C 208.507,134.337 211.174,135.67 213.5,137.5C 213.415,139.929 212.415,141.929 210.5,143.5C 211.248,145.416 211.248,147.416 210.5,149.5C 211.675,149.281 212.675,149.614 213.5,150.5C 214.348,152.409 214.682,154.409 214.5,156.5C 215.978,156.238 217.311,156.571 218.5,157.5C 214.654,161.668 211.654,166.335 209.5,171.5C 206.489,170.331 203.822,168.664 201.5,166.5C 199.799,162.236 200.466,158.402 203.5,155C 203.062,153.08 202.395,151.246 201.5,149.5C 200.032,151.333 198.365,151.666 196.5,150.5C 198.071,148.118 198.904,145.451 199,142.5C 199.915,143.328 200.581,144.328 201,145.5C 201.207,138.521 202.373,131.854 204.5,125.5 Z"/></g>
<g><path style="opacity:0.99" fill="#1ddaab" d="M 282.5,113.5 C 283.166,118.349 283.833,123.349 284.5,128.5C 285.167,127.833 285.833,127.167 286.5,126.5C 286.833,127 287.167,127.5 287.5,128C 286.094,129.978 285.094,132.145 284.5,134.5C 281.132,135.102 277.799,135.936 274.5,137C 273.167,139.333 271.833,141.667 270.5,144C 272.394,145.079 272.727,146.413 271.5,148C 272.624,148.249 273.624,148.749 274.5,149.5C 272.841,150.998 271.175,152.498 269.5,154C 270.736,155.856 270.736,157.689 269.5,159.5C 270.557,159.906 271.891,159.906 273.5,159.5C 273.281,160.675 273.614,161.675 274.5,162.5C 278.171,160.635 281.671,160.635 285,162.5C 286.789,160.771 288.956,160.104 291.5,160.5C 282.826,166.841 273.493,172.175 263.5,176.5C 261.45,176.039 259.45,175.372 257.5,174.5C 256.572,176.335 255.406,176.668 254,175.5C 250.359,170.232 250.859,165.398 255.5,161C 254.004,160.493 252.837,160.993 252,162.5C 252.718,159.698 252.551,156.865 251.5,154C 251.354,151.966 252.02,150.299 253.5,149C 257.916,146.042 262.416,143.208 267,140.5C 267.49,139.207 267.657,137.873 267.5,136.5C 271.676,133.151 276.176,130.151 281,127.5C 281.281,122.785 281.781,118.118 282.5,113.5 Z"/></g>
<g><path style="opacity:0.993" fill="#0b98f4" d="M 91.5,128.5 C 92.1667,128.5 92.8333,128.5 93.5,128.5C 95.0618,128.733 96.3951,129.4 97.5,130.5C 97.9978,133.487 98.4978,136.487 99,139.5C 107.016,147.542 108.682,156.875 104,167.5C 103.163,169.007 101.996,169.507 100.5,169C 99.1387,167.416 98.472,165.582 98.5,163.5C 96.4078,163.439 94.9078,162.439 94,160.5C 93.6121,161.428 92.9454,162.095 92,162.5C 90.2158,161.691 88.3825,161.024 86.5,160.5C 85.5836,160.543 84.9169,160.876 84.5,161.5C 81.911,161.539 79.911,160.539 78.5,158.5C 81.4554,157.878 84.4554,158.211 87.5,159.5C 87.8333,159 88.1667,158.5 88.5,158C 88.2608,155.514 87.9275,153.014 87.5,150.5C 89.5,147.5 91.5,144.5 93.5,141.5C 92.6446,140.707 91.8113,141.04 91,142.5C 90.3523,137.796 90.519,133.129 91.5,128.5 Z"/></g>
<g><path style="opacity:0.98" fill="#16dda5" d="M 300.5,154.5 C 300.5,155.167 300.5,155.833 300.5,156.5C 297.686,158.07 294.686,159.403 291.5,160.5C 288.956,160.104 286.789,160.771 285,162.5C 281.671,160.635 278.171,160.635 274.5,162.5C 273.614,161.675 273.281,160.675 273.5,159.5C 271.891,159.906 270.557,159.906 269.5,159.5C 270.736,157.689 270.736,155.856 269.5,154C 271.175,152.498 272.841,150.998 274.5,149.5C 273.624,148.749 272.624,148.249 271.5,148C 272.727,146.413 272.394,145.079 270.5,144C 271.833,141.667 273.167,139.333 274.5,137C 277.799,135.936 281.132,135.102 284.5,134.5C 286.752,134.084 288.252,132.751 289,130.5C 288.99,134.807 289.323,138.473 290,141.5C 290.667,140.833 291.333,140.167 292,139.5C 290.982,143.327 292.149,146.493 295.5,149C 294.692,149.308 294.025,149.808 293.5,150.5C 295.566,152.199 297.9,153.532 300.5,154.5 Z"/></g>
<g><path style="opacity:0.965" fill="#1aa0f0" d="M 97.5,130.5 C 102.833,133.5 108.167,136.5 113.5,139.5C 113.542,142.585 114.875,144.919 117.5,146.5C 116.226,148.993 116.56,151.326 118.5,153.5C 118.125,155.459 117.459,157.293 116.5,159C 118.67,162.843 119.503,167.01 119,171.5C 118.085,170.672 117.419,169.672 117,168.5C 116.23,172.204 117.397,175.037 120.5,177C 119.333,177.167 118.167,177.333 117,177.5C 114.494,177.051 112.327,176.051 110.5,174.5C 109.584,174.543 108.917,174.876 108.5,175.5C 99.8356,171.839 91.8356,167.173 84.5,161.5C 84.9169,160.876 85.5836,160.543 86.5,160.5C 88.3825,161.024 90.2158,161.691 92,162.5C 92.9454,162.095 93.6121,161.428 94,160.5C 94.9078,162.439 96.4078,163.439 98.5,163.5C 98.472,165.582 99.1387,167.416 100.5,169C 101.996,169.507 103.163,169.007 104,167.5C 108.682,156.875 107.016,147.542 99,139.5C 98.4978,136.487 97.9978,133.487 97.5,130.5 Z"/></g>
<g><path style="opacity:0.95" fill="#1eb3e4" d="M 162.5,136.5 C 163.473,136.987 164.473,137.487 165.5,138C 164.754,141.28 164.087,144.614 163.5,148C 164.966,150.438 164.632,152.605 162.5,154.5C 163.115,157.039 163.782,159.539 164.5,162C 162.701,163.7 162.368,165.533 163.5,167.5C 161.394,169.719 160.394,172.385 160.5,175.5C 151.984,186.001 149.317,197.668 152.5,210.5C 151.503,210.47 150.836,210.97 150.5,212C 151.127,214.135 151.627,216.302 152,218.5C 152.5,220.333 153.667,221.5 155.5,222C 154.296,225.716 153.462,229.55 153,233.5C 151.315,235.017 149.815,236.684 148.5,238.5C 150.329,239.282 151.829,238.616 153,236.5C 153.667,237.5 153.667,238.5 153,239.5C 151.045,241.911 149.211,244.411 147.5,247C 146.5,247.5 145.5,248 144.5,248.5C 142.591,247.652 140.591,247.318 138.5,247.5C 136.833,246.167 135.167,246.167 133.5,247.5C 133.5,246.5 133.5,245.5 133.5,244.5C 136.485,243.276 139.151,243.609 141.5,245.5C 142.941,244.135 144.274,242.635 145.5,241C 143.775,241.409 142.108,241.242 140.5,240.5C 141.263,239.281 142.263,238.281 143.5,237.5C 142.833,236.833 142.167,236.167 141.5,235.5C 145.091,231.454 146.257,226.788 145,221.5C 143.092,224.332 142.259,223.999 142.5,220.5C 145.383,218.747 146.883,216.08 147,212.5C 148.487,213.741 149.32,213.241 149.5,211C 146.765,200.616 147.765,190.616 152.5,181C 149.514,177.636 148.848,173.802 150.5,169.5C 151.167,170.833 151.833,172.167 152.5,173.5C 153.375,170.46 154.375,167.46 155.5,164.5C 155.023,163.522 154.357,162.689 153.5,162C 154.863,159.871 154.529,159.371 152.5,160.5C 151.358,155.753 152.692,151.753 156.5,148.5C 154.877,147.524 153.543,148.024 152.5,150C 151.5,150.667 150.5,150.667 149.5,150C 152.102,147.984 153.769,145.817 154.5,143.5C 150.931,145.453 147.264,147.119 143.5,148.5C 148.676,142.741 155.009,138.741 162.5,136.5 Z"/></g>
<g><path style="opacity:0.98" fill="#17d6b1" d="M 267.5,136.5 C 267.657,137.873 267.49,139.207 267,140.5C 262.416,143.208 257.916,146.042 253.5,149C 252.02,150.299 251.354,151.966 251.5,154C 252.551,156.865 252.718,159.698 252,162.5C 252.837,160.993 254.004,160.493 255.5,161C 250.859,165.398 250.359,170.232 254,175.5C 255.406,176.668 256.572,176.335 257.5,174.5C 259.45,175.372 261.45,176.039 263.5,176.5C 260.571,178.982 257.571,181.482 254.5,184C 257.143,194.141 257.143,204.307 254.5,214.5C 256.215,216.882 258.215,218.882 260.5,220.5C 258.521,222.608 255.687,224.608 252,226.5C 251.808,224.423 251.308,222.423 250.5,220.5C 249.095,223.984 249.261,227.318 251,230.5C 251.667,229.833 252.333,229.167 253,228.5C 253.393,231.633 254.226,234.633 255.5,237.5C 256.396,236.494 257.062,236.494 257.5,237.5C 256.872,239.258 255.872,240.758 254.5,242C 255.914,246.696 255.414,247.196 253,243.5C 252.503,245.81 252.337,248.143 252.5,250.5C 251.448,250.351 250.448,250.517 249.5,251C 250.252,251.671 250.586,252.504 250.5,253.5C 247.339,252.087 244.339,250.42 241.5,248.5C 241.087,245.585 239.421,243.752 236.5,243C 233.913,241.475 233.08,239.308 234,236.5C 234.333,237.167 234.667,237.833 235,238.5C 236.333,233.167 237.667,233.167 239,238.5C 239.792,234.914 238.959,231.747 236.5,229C 239.285,222.347 240.118,215.514 239,208.5C 239.317,210.301 239.984,210.634 241,209.5C 241.343,206.807 242.676,204.807 245,203.5C 245.667,200.5 245.667,197.5 245,194.5C 244.08,197.101 243.413,199.768 243,202.5C 242.321,190.14 242.488,177.973 243.5,166C 242.262,166.077 241.262,165.911 240.5,165.5C 242.068,163.106 243.401,160.606 244.5,158C 242.887,157.911 241.72,158.745 241,160.5C 239.958,157.196 241.125,155.029 244.5,154C 243.177,153.184 242.511,152.017 242.5,150.5C 250.376,145.061 258.709,140.394 267.5,136.5 Z"/></g>
<g><path style="opacity:0.966" fill="#17cac6" d="M 213.5,137.5 C 219.121,138.64 223.788,141.306 227.5,145.5C 226.504,145.414 225.671,145.748 225,146.5C 225.037,150.159 223.871,153.326 221.5,156C 222.996,156.507 224.163,156.007 225,154.5C 225.167,154.833 225.333,155.167 225.5,155.5C 223.5,158.5 221.5,161.5 219.5,164.5C 219.667,164.833 219.833,165.167 220,165.5C 221.667,163.833 223.333,162.167 225,160.5C 225.167,160.833 225.333,161.167 225.5,161.5C 223.192,164.975 220.692,168.308 218,171.5C 217.544,172.744 218.044,173.577 219.5,174C 218.219,175.409 217.219,176.909 216.5,178.5C 213.833,176.5 211.5,174.167 209.5,171.5C 211.654,166.335 214.654,161.668 218.5,157.5C 217.311,156.571 215.978,156.238 214.5,156.5C 214.682,154.409 214.348,152.409 213.5,150.5C 212.675,149.614 211.675,149.281 210.5,149.5C 211.248,147.416 211.248,145.416 210.5,143.5C 212.415,141.929 213.415,139.929 213.5,137.5 Z"/></g>
<g><path style="opacity:0.969" fill="#13a6eb" d="M 113.5,139.5 C 117.5,141.833 121.5,144.167 125.5,146.5C 125.678,147.695 126.011,148.862 126.5,150C 124.044,151.976 123.877,154.143 126,156.5C 128.213,157.802 130.546,158.802 133,159.5C 132.853,162.832 132.353,166.165 131.5,169.5C 132.886,171.503 133.886,174.169 134.5,177.5C 134.025,179.873 134.025,182.039 134.5,184C 133.833,185.333 132.833,186.333 131.5,187C 132.672,187.419 133.672,188.085 134.5,189C 131.725,192.034 129.058,195.201 126.5,198.5C 126.667,198.833 126.833,199.167 127,199.5C 129.333,197.167 131.667,194.833 134,192.5C 133.965,196.245 134.965,196.912 137,194.5C 138.727,197.349 138.894,200.349 137.5,203.5C 135.629,204.767 133.796,204.767 132,203.5C 129.651,206.017 127.151,208.35 124.5,210.5C 125.729,211.281 127.062,211.781 128.5,212C 126.279,213.669 125.945,215.669 127.5,218C 126.99,219.826 126.156,219.993 125,218.5C 124.333,220.5 124.333,222.5 125,224.5C 126.065,222.604 126.898,222.437 127.5,224C 126.065,227.104 123.898,229.604 121,231.5C 120.667,229.953 121.167,228.62 122.5,227.5C 122.192,226.692 121.692,226.025 121,225.5C 119.536,226.459 118.703,227.792 118.5,229.5C 119.634,231.538 119.634,233.538 118.5,235.5C 123.019,238.973 123.353,242.64 119.5,246.5C 117.76,244.326 116.76,244.993 116.5,248.5C 117.803,251.042 118.803,253.709 119.5,256.5C 114.833,259.167 110.167,261.833 105.5,264.5C 104.013,261.788 104.679,259.621 107.5,258C 104.327,248.588 106.66,240.921 114.5,235C 113.101,234.405 111.768,234.572 110.5,235.5C 109.866,233.433 108.866,231.6 107.5,230C 107.957,229.586 108.291,229.086 108.5,228.5C 106.709,227.83 105.042,227.163 103.5,226.5C 109.098,222.909 114.431,218.909 119.5,214.5C 116.833,204.5 116.833,194.5 119.5,184.5C 115.986,181.253 112.32,178.253 108.5,175.5C 108.917,174.876 109.584,174.543 110.5,174.5C 112.327,176.051 114.494,177.051 117,177.5C 118.167,177.333 119.333,177.167 120.5,177C 117.397,175.037 116.23,172.204 117,168.5C 117.419,169.672 118.085,170.672 119,171.5C 119.503,167.01 118.67,162.843 116.5,159C 117.459,157.293 118.125,155.459 118.5,153.5C 116.56,151.326 116.226,148.993 117.5,146.5C 114.875,144.919 113.542,142.585 113.5,139.5 Z"/></g>
<g><path style="opacity:0.991" fill="#08afe7" d="M 142.5,220.5 C 141.207,219.355 140.041,219.689 139,221.5C 137.849,217.171 138.682,213.338 141.5,210C 140.643,209.311 139.977,208.478 139.5,207.5C 141.774,198.024 144.107,188.524 146.5,179C 146,178.5 145.5,178 145,177.5C 144.529,179.246 143.862,180.913 143,182.5C 142.587,179.768 141.92,177.101 141,174.5C 140.667,175.167 140.333,175.833 140,176.5C 137.569,172.553 138.403,169.553 142.5,167.5C 143.123,169.966 143.957,172.299 145,174.5C 145.692,173.975 146.192,173.308 146.5,172.5C 145.811,170.556 145.311,168.556 145,166.5C 141.391,162.277 138.557,157.61 136.5,152.5C 138.635,150.929 140.968,149.596 143.5,148.5C 147.264,147.119 150.931,145.453 154.5,143.5C 153.769,145.817 152.102,147.984 149.5,150C 150.5,150.667 151.5,150.667 152.5,150C 153.543,148.024 154.877,147.524 156.5,148.5C 152.692,151.753 151.358,155.753 152.5,160.5C 154.529,159.371 154.863,159.871 153.5,162C 154.357,162.689 155.023,163.522 155.5,164.5C 154.375,167.46 153.375,170.46 152.5,173.5C 151.833,172.167 151.167,170.833 150.5,169.5C 148.848,173.802 149.514,177.636 152.5,181C 147.765,190.616 146.765,200.616 149.5,211C 149.32,213.241 148.487,213.741 147,212.5C 146.883,216.08 145.383,218.747 142.5,220.5 Z"/></g>
<g><path style="opacity:0.996" fill="#18cfbc" d="M 227.5,145.5 C 231.35,147.004 234.683,149.337 237.5,152.5C 238.417,151.873 239.417,151.539 240.5,151.5C 236.863,154.306 233.696,157.639 231,161.5C 230.333,162.833 230.333,164.167 231,165.5C 231.837,163.993 233.004,163.493 234.5,164C 233.253,165.458 233.253,166.958 234.5,168.5C 233.833,169.833 233.167,171.167 232.5,172.5C 234.629,180.012 232.295,185.679 225.5,189.5C 224.232,191.304 223.565,193.304 223.5,195.5C 221.471,189.767 219.138,184.1 216.5,178.5C 217.219,176.909 218.219,175.409 219.5,174C 218.044,173.577 217.544,172.744 218,171.5C 220.692,168.308 223.192,164.975 225.5,161.5C 225.333,161.167 225.167,160.833 225,160.5C 223.333,162.167 221.667,163.833 220,165.5C 219.833,165.167 219.667,164.833 219.5,164.5C 221.5,161.5 223.5,158.5 225.5,155.5C 225.333,155.167 225.167,154.833 225,154.5C 224.163,156.007 222.996,156.507 221.5,156C 223.871,153.326 225.037,150.159 225,146.5C 225.671,145.748 226.504,145.414 227.5,145.5 Z"/></g>
<g><path style="opacity:0.961" fill="#4783eb" d="M 11.5,147.5 C 15.8333,147.167 17.8333,149.167 17.5,153.5C 14.5222,152.522 12.5222,150.522 11.5,147.5 Z"/></g>
<g><path style="opacity:0.972" fill="#0aabe9" d="M 125.5,146.5 C 129.327,148.246 132.993,150.246 136.5,152.5C 138.557,157.61 141.391,162.277 145,166.5C 145.311,168.556 145.811,170.556 146.5,172.5C 146.192,173.308 145.692,173.975 145,174.5C 143.957,172.299 143.123,169.966 142.5,167.5C 138.403,169.553 137.569,172.553 140,176.5C 140.333,175.833 140.667,175.167 141,174.5C 141.92,177.101 142.587,179.768 143,182.5C 143.862,180.913 144.529,179.246 145,177.5C 145.5,178 146,178.5 146.5,179C 144.107,188.524 141.774,198.024 139.5,207.5C 139.977,208.478 140.643,209.311 141.5,210C 138.682,213.338 137.849,217.171 139,221.5C 140.041,219.689 141.207,219.355 142.5,220.5C 142.259,223.999 143.092,224.332 145,221.5C 146.257,226.788 145.091,231.454 141.5,235.5C 142.167,236.167 142.833,236.833 143.5,237.5C 142.263,238.281 141.263,239.281 140.5,240.5C 142.108,241.242 143.775,241.409 145.5,241C 144.274,242.635 142.941,244.135 141.5,245.5C 139.151,243.609 136.485,243.276 133.5,244.5C 133.5,245.5 133.5,246.5 133.5,247.5C 128.833,250.5 124.167,253.5 119.5,256.5C 118.803,253.709 117.803,251.042 116.5,248.5C 116.76,244.993 117.76,244.326 119.5,246.5C 123.353,242.64 123.019,238.973 118.5,235.5C 119.634,233.538 119.634,231.538 118.5,229.5C 118.703,227.792 119.536,226.459 121,225.5C 121.692,226.025 122.192,226.692 122.5,227.5C 121.167,228.62 120.667,229.953 121,231.5C 123.898,229.604 126.065,227.104 127.5,224C 126.898,222.437 126.065,222.604 125,224.5C 124.333,222.5 124.333,220.5 125,218.5C 126.156,219.993 126.99,219.826 127.5,218C 125.945,215.669 126.279,213.669 128.5,212C 127.062,211.781 125.729,211.281 124.5,210.5C 127.151,208.35 129.651,206.017 132,203.5C 133.796,204.767 135.629,204.767 137.5,203.5C 138.894,200.349 138.727,197.349 137,194.5C 134.965,196.912 133.965,196.245 134,192.5C 131.667,194.833 129.333,197.167 127,199.5C 126.833,199.167 126.667,198.833 126.5,198.5C 129.058,195.201 131.725,192.034 134.5,189C 133.672,188.085 132.672,187.419 131.5,187C 132.833,186.333 133.833,185.333 134.5,184C 134.025,182.039 134.025,179.873 134.5,177.5C 133.886,174.169 132.886,171.503 131.5,169.5C 132.353,166.165 132.853,162.832 133,159.5C 130.546,158.802 128.213,157.802 126,156.5C 123.877,154.143 124.044,151.976 126.5,150C 126.011,148.862 125.678,147.695 125.5,146.5 Z"/></g>
<g><path style="opacity:0.977" fill="#0ed3b7" d="M 242.5,150.5 C 242.511,152.017 243.177,153.184 244.5,154C 241.125,155.029 239.958,157.196 241,160.5C 241.72,158.745 242.887,157.911 244.5,158C 243.401,160.606 242.068,163.106 240.5,165.5C 241.262,165.911 242.262,166.077 243.5,166C 242.488,177.973 242.321,190.14 243,202.5C 243.413,199.768 244.08,197.101 245,194.5C 245.667,197.5 245.667,200.5 245,203.5C 242.676,204.807 241.343,206.807 241,209.5C 239.984,210.634 239.317,210.301 239,208.5C 240.118,215.514 239.285,222.347 236.5,229C 238.959,231.747 239.792,234.914 239,238.5C 237.667,233.167 236.333,233.167 235,238.5C 234.667,237.833 234.333,237.167 234,236.5C 233.08,239.308 233.913,241.475 236.5,243C 239.421,243.752 241.087,245.585 241.5,248.5C 239.983,248.489 238.816,247.823 238,246.5C 234.392,250.377 230.225,253.377 225.5,255.5C 224.014,253.441 222.18,252.775 220,253.5C 220.963,249.647 221.963,245.647 223,241.5C 223.29,243.044 223.956,244.377 225,245.5C 225.167,244.667 225.333,243.833 225.5,243C 224.802,240.213 224.635,237.38 225,234.5C 224.105,237.375 223.272,237.708 222.5,235.5C 224.358,232.418 224.358,229.085 222.5,225.5C 221.808,226.025 221.308,226.692 221,227.5C 221.361,224.076 222.361,220.742 224,217.5C 224.814,212.98 224.647,208.646 223.5,204.5C 223.5,201.5 223.5,198.5 223.5,195.5C 223.565,193.304 224.232,191.304 225.5,189.5C 232.295,185.679 234.629,180.012 232.5,172.5C 233.167,171.167 233.833,169.833 234.5,168.5C 233.253,166.958 233.253,165.458 234.5,164C 233.004,163.493 231.837,163.993 231,165.5C 230.333,164.167 230.333,162.833 231,161.5C 233.696,157.639 236.863,154.306 240.5,151.5C 240.842,150.662 241.508,150.328 242.5,150.5 Z"/></g>
<g><path style="opacity:0.966" fill="#16cfbe" d="M 223.5,204.5 C 224.647,208.646 224.814,212.98 224,217.5C 222.361,220.742 221.361,224.076 221,227.5C 221.308,226.692 221.808,226.025 222.5,225.5C 224.358,229.085 224.358,232.418 222.5,235.5C 223.272,237.708 224.105,237.375 225,234.5C 224.635,237.38 224.802,240.213 225.5,243C 225.333,243.833 225.167,244.667 225,245.5C 223.956,244.377 223.29,243.044 223,241.5C 221.963,245.647 220.963,249.647 220,253.5C 222.18,252.775 224.014,253.441 225.5,255.5C 222.462,259.357 218.462,261.69 213.5,262.5C 211.984,260.814 210.65,258.981 209.5,257C 210.701,254.766 212.035,252.599 213.5,250.5C 212.336,250.835 211.003,250.835 209.5,250.5C 211.444,248.72 212.777,246.553 213.5,244C 212.107,242.699 211.607,241.199 212,239.5C 214.705,238.047 215.539,236.047 214.5,233.5C 213.096,234.999 212.43,234.666 212.5,232.5C 213.586,229.58 214.252,226.58 214.5,223.5C 218.342,217.486 221.342,211.152 223.5,204.5 Z"/></g>
<g><path style="opacity:0.983" fill="#1cdaa6" d="M 260.5,220.5 C 262.784,220.975 264.784,221.975 266.5,223.5C 264.233,225.367 263.066,227.7 263,230.5C 263.667,229.833 264.333,229.167 265,228.5C 265.591,233.377 266.924,234.044 269,230.5C 269.5,231 270,231.5 270.5,232C 269.782,233.987 268.782,235.821 267.5,237.5C 267.846,238.696 268.346,238.696 269,237.5C 270.436,240.143 270.602,242.81 269.5,245.5C 268.808,244.975 268.308,244.308 268,243.5C 267.542,246.096 268.375,248.263 270.5,250C 269.014,252.289 268.014,254.789 267.5,257.5C 269.256,259.932 270.59,262.599 271.5,265.5C 264.337,261.753 257.337,257.753 250.5,253.5C 250.586,252.504 250.252,251.671 249.5,251C 250.448,250.517 251.448,250.351 252.5,250.5C 252.337,248.143 252.503,245.81 253,243.5C 255.414,247.196 255.914,246.696 254.5,242C 255.872,240.758 256.872,239.258 257.5,237.5C 257.062,236.494 256.396,236.494 255.5,237.5C 254.226,234.633 253.393,231.633 253,228.5C 252.333,229.167 251.667,229.833 251,230.5C 249.261,227.318 249.095,223.984 250.5,220.5C 251.308,222.423 251.808,224.423 252,226.5C 255.687,224.608 258.521,222.608 260.5,220.5 Z"/></g>
<g><path style="opacity:0.985" fill="#13b5de" d="M 152.5,210.5 C 154.952,217.281 158.952,222.948 164.5,227.5C 164.371,230.766 163.371,233.766 161.5,236.5C 162.391,237.59 163.391,237.59 164.5,236.5C 164.833,237.667 165.167,238.833 165.5,240C 164.795,242.896 163.795,245.729 162.5,248.5C 163.396,250.801 163.562,253.134 163,255.5C 161.844,254.007 161.01,254.174 160.5,256C 161.509,257.168 162.509,258.335 163.5,259.5C 160.956,259.949 158.29,259.949 155.5,259.5C 148.719,257.048 143.052,253.048 138.5,247.5C 140.591,247.318 142.591,247.652 144.5,248.5C 145.5,248 146.5,247.5 147.5,247C 149.211,244.411 151.045,241.911 153,239.5C 153.667,238.5 153.667,237.5 153,236.5C 151.829,238.616 150.329,239.282 148.5,238.5C 149.815,236.684 151.315,235.017 153,233.5C 153.462,229.55 154.296,225.716 155.5,222C 153.667,221.5 152.5,220.333 152,218.5C 151.627,216.302 151.127,214.135 150.5,212C 150.836,210.97 151.503,210.47 152.5,210.5 Z"/></g>
<g><path style="opacity:0.962" fill="#0ac9c4" d="M 214.5,223.5 C 214.252,226.58 213.586,229.58 212.5,232.5C 212.43,234.666 213.096,234.999 214.5,233.5C 215.539,236.047 214.705,238.047 212,239.5C 211.607,241.199 212.107,242.699 213.5,244C 212.777,246.553 211.444,248.72 209.5,250.5C 211.003,250.835 212.336,250.835 213.5,250.5C 212.035,252.599 210.701,254.766 209.5,257C 210.65,258.981 211.984,260.814 213.5,262.5C 210.925,263.787 208.259,265.121 205.5,266.5C 204.501,281.152 204.167,295.818 204.5,310.5C 201.95,310.884 200.617,312.384 200.5,315C 202.268,319.019 203.935,323.019 205.5,327C 204.207,327.49 202.873,327.657 201.5,327.5C 201.393,329.903 202.393,331.736 204.5,333C 204.043,333.414 203.709,333.914 203.5,334.5C 204.716,335.096 206.049,335.263 207.5,335C 204.646,337.078 204.312,339.245 206.5,341.5C 205.408,343.183 204.741,345.016 204.5,347C 205.671,351.154 205.671,355.32 204.5,359.5C 204.833,360.833 205.167,362.167 205.5,363.5C 206.736,362.754 208.07,362.421 209.5,362.5C 209.762,363.978 209.429,365.311 208.5,366.5C 207.914,366.291 207.414,365.957 207,365.5C 206.814,370.828 208.148,375.828 211,380.5C 214.922,381.184 216.422,383.518 215.5,387.5C 214.839,386.282 214.172,384.949 213.5,383.5C 211.684,384.815 210.017,386.315 208.5,388C 206.866,388.494 205.199,388.66 203.5,388.5C 201.189,382.64 199.023,376.64 197,370.5C 196.271,366.623 196.438,362.789 197.5,359C 196.288,358.746 195.122,357.913 194,356.5C 193.231,353.901 193.398,351.401 194.5,349C 193.285,346.904 192.451,347.071 192,349.5C 191.08,346.899 190.413,344.232 190,341.5C 189.34,339.676 188.173,338.343 186.5,337.5C 186.187,333.958 186.521,330.625 187.5,327.5C 189.355,325.967 191.188,324.3 193,322.5C 193.236,320.236 193.736,318.069 194.5,316C 194.587,297.088 194.587,278.421 194.5,260C 194.667,258.833 194.833,257.667 195,256.5C 196.361,254.972 197.528,253.305 198.5,251.5C 197.585,250.672 196.919,249.672 196.5,248.5C 199.993,241.971 203.659,235.638 207.5,229.5C 209.833,227.5 212.167,225.5 214.5,223.5 Z"/></g>
<g><path style="opacity:0.97" fill="#1edda0" d="M 266.5,223.5 C 272.696,226.092 278.363,229.425 283.5,233.5C 282.85,233.804 282.183,234.137 281.5,234.5C 278.959,231.9 276.459,231.9 274,234.5C 273.251,235.635 273.417,236.635 274.5,237.5C 275.842,236.098 276.676,236.431 277,238.5C 277.499,242.821 277.666,247.154 277.5,251.5C 273.938,251.564 272.271,253.397 272.5,257C 271.939,260.448 273.106,261.615 276,260.5C 276.49,261.793 276.657,263.127 276.5,264.5C 277.833,264.5 279.167,264.5 280.5,264.5C 280.675,266.621 280.341,268.621 279.5,270.5C 276.833,268.833 274.167,267.167 271.5,265.5C 270.59,262.599 269.256,259.932 267.5,257.5C 268.014,254.789 269.014,252.289 270.5,250C 268.375,248.263 267.542,246.096 268,243.5C 268.308,244.308 268.808,244.975 269.5,245.5C 270.602,242.81 270.436,240.143 269,237.5C 268.346,238.696 267.846,238.696 267.5,237.5C 268.782,235.821 269.782,233.987 270.5,232C 270,231.5 269.5,231 269,230.5C 266.924,234.044 265.591,233.377 265,228.5C 264.333,229.167 263.667,229.833 263,230.5C 263.066,227.7 264.233,225.367 266.5,223.5 Z"/></g>
<g><path style="opacity:0.98" fill="#1da3ee" d="M 103.5,226.5 C 105.042,227.163 106.709,227.83 108.5,228.5C 108.291,229.086 107.957,229.586 107.5,230C 108.866,231.6 109.866,233.433 110.5,235.5C 111.768,234.572 113.101,234.405 114.5,235C 106.66,240.921 104.327,248.588 107.5,258C 104.679,259.621 104.013,261.788 105.5,264.5C 102.021,266.742 98.3538,268.742 94.5,270.5C 93.6667,276.5 92.8333,282.5 92,288.5C 90.9388,292.95 89.1054,296.95 86.5,300.5C 85.7326,299.828 85.0659,298.995 84.5,298C 86.3782,296.007 86.7115,293.841 85.5,291.5C 84.8333,291.833 84.1667,292.167 83.5,292.5C 83.1667,290.333 82.8333,288.167 82.5,286C 82.704,279.94 83.704,274.106 85.5,268.5C 85.5,267.5 85.5,266.5 85.5,265.5C 86.9305,265.421 88.2638,265.754 89.5,266.5C 92.6392,262.195 95.6392,257.862 98.5,253.5C 96.6745,252.429 95.5079,253.096 95,255.5C 94.8446,253.144 94.8446,250.811 95,248.5C 94.0347,250.26 92.868,250.594 91.5,249.5C 92.7113,248.126 93.7113,246.626 94.5,245C 94.3333,244.5 94.1667,244 94,243.5C 93.1072,244.711 92.2739,244.711 91.5,243.5C 92.4847,241.902 92.6514,240.235 92,238.5C 89.723,237.883 87.5563,237.216 85.5,236.5C 90.8471,232.156 96.8471,228.823 103.5,226.5 Z"/></g>
<g><path style="opacity:0.957" fill="#05c4ca" d="M 207.5,229.5 C 203.659,235.638 199.993,241.971 196.5,248.5C 196.919,249.672 197.585,250.672 198.5,251.5C 197.528,253.305 196.361,254.972 195,256.5C 194.833,257.667 194.667,258.833 194.5,260C 194.587,278.421 194.587,297.088 194.5,316C 193.736,318.069 193.236,320.236 193,322.5C 191.188,324.3 189.355,325.967 187.5,327.5C 187.297,325.956 186.63,324.622 185.5,323.5C 186.316,309.545 186.816,295.545 187,281.5C 187.914,277.815 188.581,278.148 189,282.5C 189.88,278.484 190.38,274.651 190.5,271C 189.874,270.25 189.374,269.416 189,268.5C 188.667,270.167 188.333,271.833 188,273.5C 187.308,268.89 186.475,264.057 185.5,259C 186.975,256.691 188.642,254.524 190.5,252.5C 189.167,249.5 189.167,246.5 190.5,243.5C 187.582,240.769 187.915,238.603 191.5,237C 190.944,236.617 190.611,236.117 190.5,235.5C 196.463,234.29 202.129,232.29 207.5,229.5 Z"/></g>
<g><path style="opacity:0.964" fill="#28e29a" d="M 283.5,233.5 C 288.165,234.828 292.165,237.161 295.5,240.5C 293.669,239.948 292.003,239.948 290.5,240.5C 291.695,241.967 291.695,243.467 290.5,245C 291.01,246.826 291.844,246.993 293,245.5C 293.667,246.833 294.333,248.167 295,249.5C 295.654,248.304 296.154,248.304 296.5,249.5C 294.179,252.394 293.012,255.727 293,259.5C 290.78,262.021 288.28,264.188 285.5,266C 286.357,266.689 287.023,267.522 287.5,268.5C 285.49,269.065 283.824,270.065 282.5,271.5C 283.325,272.386 284.325,272.719 285.5,272.5C 285.493,275.038 285.159,277.538 284.5,280C 287.178,287.531 288.844,295.364 289.5,303.5C 285.594,299.333 283.094,294.333 282,288.5C 281.667,282.833 281.333,277.167 281,271.5C 280.617,270.944 280.117,270.611 279.5,270.5C 280.341,268.621 280.675,266.621 280.5,264.5C 279.167,264.5 277.833,264.5 276.5,264.5C 276.657,263.127 276.49,261.793 276,260.5C 273.106,261.615 271.939,260.448 272.5,257C 272.271,253.397 273.938,251.564 277.5,251.5C 277.666,247.154 277.499,242.821 277,238.5C 276.676,236.431 275.842,236.098 274.5,237.5C 273.417,236.635 273.251,235.635 274,234.5C 276.459,231.9 278.959,231.9 281.5,234.5C 282.183,234.137 282.85,233.804 283.5,233.5 Z"/></g>
<g><path style="opacity:0.976" fill="#1a8ef6" d="M 59.5,235.5 C 54.187,236.443 53.3537,238.776 57,242.5C 58.4705,240.128 59.6372,240.128 60.5,242.5C 59.3443,246.123 58.3443,249.789 57.5,253.5C 57.7467,265.455 58.4134,277.455 59.5,289.5C 59.712,292.011 59.0454,294.178 57.5,296C 58.448,296.483 59.448,296.649 60.5,296.5C 60.3354,299.518 60.502,302.518 61,305.5C 61.8333,306.333 62.6667,307.167 63.5,308C 62.3991,310.292 63.2324,311.792 66,312.5C 67.128,314.345 67.628,316.345 67.5,318.5C 59.3342,322.034 51.0009,323.034 42.5,321.5C 44.1667,321.5 45.8333,321.5 47.5,321.5C 51.6205,321.909 54.9538,320.576 57.5,317.5C 55.5989,316.065 55.2655,314.398 56.5,312.5C 55.3819,305.51 54.2152,298.51 53,291.5C 51.9326,290.809 50.7659,290.309 49.5,290C 50.6145,287.899 50.6145,285.733 49.5,283.5C 50.9502,281.242 52.6169,278.409 54.5,275C 53.4758,270.169 54.1424,265.502 56.5,261C 56.0541,259.274 55.2208,257.774 54,256.5C 53.6667,257.167 53.3333,257.833 53,258.5C 51.908,255.956 51.2414,253.289 51,250.5C 50.3333,249.833 49.6667,249.167 49,248.5C 48.3486,250.235 48.5153,251.902 49.5,253.5C 48.3687,254.604 47.5354,254.271 47,252.5C 46.4054,251.101 46.5721,249.768 47.5,248.5C 44.9557,246.608 44.9557,244.775 47.5,243C 45.0807,241.491 44.0807,239.325 44.5,236.5C 39.8809,237.314 35.2142,237.647 30.5,237.5C 39.9389,233.158 49.6056,232.492 59.5,235.5 Z"/></g>
<g><path style="opacity:0.977" fill="#0cbed5" d="M 164.5,227.5 C 168.535,229.848 172.535,232.182 176.5,234.5C 178.008,235.746 179.508,237.08 181,238.5C 181.66,241.047 181.493,243.547 180.5,246C 180.759,247.261 181.426,248.261 182.5,249C 181.333,250.167 180.167,251.333 179,252.5C 178.667,256.5 178.333,260.5 178,264.5C 177.667,263.833 177.333,263.167 177,262.5C 176.168,273.515 176.334,284.515 177.5,295.5C 177.74,294.163 178.24,292.497 179,290.5C 179.822,292.788 180.489,295.122 181,297.5C 181.562,292.903 182.728,292.57 184.5,296.5C 183.62,298.429 182.62,300.263 181.5,302C 181.905,302.945 182.572,303.612 183.5,304C 182.107,305.171 181.273,306.671 181,308.5C 180,315.5 179,322.5 178,329.5C 175.787,332.095 173.953,334.928 172.5,338C 172.944,339.762 173.444,339.595 174,337.5C 174.041,340.025 173.207,342.358 171.5,344.5C 172.325,345.386 173.325,345.719 174.5,345.5C 173.828,358.211 173.828,370.878 174.5,383.5C 172.533,384.202 170.866,384.202 169.5,383.5C 172.238,386.309 173.904,389.642 174.5,393.5C 171.214,392.793 167.881,392.46 164.5,392.5C 160.98,391.647 158.313,389.647 156.5,386.5C 159.167,386.5 161.833,386.5 164.5,386.5C 164.336,383.813 164.503,381.146 165,378.5C 165.862,380.087 166.529,381.754 167,383.5C 166.913,378.527 166.579,373.527 166,368.5C 165.333,370.5 164.667,372.5 164,374.5C 163.667,374.167 163.333,373.833 163,373.5C 162.667,361.167 162.333,348.833 162,336.5C 161.594,340.272 160.761,343.939 159.5,347.5C 159.167,347.333 158.833,347.167 158.5,347C 159.641,341.25 159.807,335.416 159,329.5C 158.257,331.645 157.424,331.811 156.5,330C 158.782,326.714 161.449,323.714 164.5,321C 162.078,320.865 159.745,321.365 157.5,322.5C 160.286,318.219 164.12,315.219 169,313.5C 169.833,297.823 169.666,282.156 168.5,266.5C 165.034,264.511 161.368,263.011 157.5,262C 156.619,261.292 155.953,260.458 155.5,259.5C 158.29,259.949 160.956,259.949 163.5,259.5C 162.509,258.335 161.509,257.168 160.5,256C 161.01,254.174 161.844,254.007 163,255.5C 163.562,253.134 163.396,250.801 162.5,248.5C 163.795,245.729 164.795,242.896 165.5,240C 165.167,238.833 164.833,237.667 164.5,236.5C 163.391,237.59 162.391,237.59 161.5,236.5C 163.371,233.766 164.371,230.766 164.5,227.5 Z"/></g>
<g><path style="opacity:0.984" fill="#26e88b" d="M 331.5,234.5 C 328.391,234.655 325.391,235.322 322.5,236.5C 323.337,238.844 324.671,240.844 326.5,242.5C 325.284,243.096 323.951,243.263 322.5,243C 323.517,244.049 323.684,245.216 323,246.5C 319.327,249.128 316.994,252.462 316,256.5C 317.113,254.671 318.613,253.837 320.5,254C 318.854,256.449 317.687,258.949 317,261.5C 317.667,260.833 318.333,260.167 319,259.5C 321.391,261.662 321.891,264.162 320.5,267C 321.196,268.893 322.03,270.726 323,272.5C 323.718,271.549 324.551,271.383 325.5,272C 322.078,274.719 319.578,277.886 318,281.5C 319.95,279.612 322.117,278.446 324.5,278C 321.734,281.522 318.734,284.855 315.5,288C 316.399,290.192 317.399,292.358 318.5,294.5C 318.05,297.873 317.883,301.207 318,304.5C 320.825,301.662 321.658,301.996 320.5,305.5C 320.637,307.107 321.304,308.441 322.5,309.5C 323.914,308.376 325.414,307.376 327,306.5C 329.336,307.292 329.836,308.625 328.5,310.5C 330.353,311.76 332.186,311.76 334,310.5C 334.198,312.382 334.698,314.048 335.5,315.5C 335.047,316.458 334.381,317.292 333.5,318C 329.843,319.822 326.176,321.322 322.5,322.5C 320.958,321.699 319.292,321.366 317.5,321.5C 313.599,318.869 309.599,316.202 305.5,313.5C 303.945,309.432 305.278,307.266 309.5,307C 307.986,308.439 307.653,309.939 308.5,311.5C 315.316,306.864 314.816,304.197 307,303.5C 306.493,302.004 306.993,300.837 308.5,300C 306.915,299.915 305.582,299.749 304.5,299.5C 305.6,295.558 305.767,291.558 305,287.5C 304.587,290.232 303.92,292.899 303,295.5C 302.667,293.167 302.333,290.833 302,288.5C 301.138,290.087 300.471,291.754 300,293.5C 299.003,288.625 299.837,284.125 302.5,280C 302.41,275.598 302.243,271.098 302,266.5C 301.899,269.7 301.232,272.7 300,275.5C 299.761,270.414 299.595,265.414 299.5,260.5C 303.805,255.859 308.139,251.193 312.5,246.5C 313.59,245.391 313.59,244.391 312.5,243.5C 308.517,247.387 307.517,246.387 309.5,240.5C 310.908,239.757 312.241,238.923 313.5,238C 312.944,237.617 312.611,237.117 312.5,236.5C 314.148,235.073 316.148,234.24 318.5,234C 323.02,233.186 327.354,233.353 331.5,234.5 Z"/></g>
<g><path style="opacity:0.98" fill="#2ced87" d="M 331.5,234.5 C 342.517,234.843 351.517,239.176 358.5,247.5C 354.516,250.814 352.682,255.147 353,260.5C 352.825,256.789 352.325,253.122 351.5,249.5C 350.833,251.833 350.167,254.167 349.5,256.5C 348.522,256.023 347.689,255.357 347,254.5C 346.667,255.833 346.333,257.167 346,258.5C 345.481,257.484 344.647,256.818 343.5,256.5C 342.218,257.137 341.218,257.137 340.5,256.5C 341.597,254.465 343.263,253.132 345.5,252.5C 344.597,250.38 343.263,250.046 341.5,251.5C 340.5,250.833 339.5,250.167 338.5,249.5C 338.616,252.437 338.449,255.437 338,258.5C 339.049,260.107 340.549,260.773 342.5,260.5C 342.357,262.262 342.691,263.929 343.5,265.5C 341.95,267.428 340.283,269.261 338.5,271C 340.706,270.074 343.039,269.408 345.5,269C 344.643,269.689 343.977,270.522 343.5,271.5C 344.428,272.768 344.595,274.101 344,275.5C 339.563,278.296 339.397,281.296 343.5,284.5C 347.2,281.493 350.7,278.16 354,274.5C 353.833,277.826 352.333,280.493 349.5,282.5C 350.015,284.225 350.682,285.892 351.5,287.5C 354.805,286.028 357.305,283.695 359,280.5C 359.594,274.825 360.26,269.158 361,263.5C 361.667,267.5 362.333,271.5 363,275.5C 364.509,272.671 364.675,269.838 363.5,267C 365.248,264.987 366.582,262.82 367.5,260.5C 371.356,268.728 372.356,277.394 370.5,286.5C 369.417,286.461 368.417,286.127 367.5,285.5C 366.833,287.167 366.167,288.833 365.5,290.5C 364.167,291.833 362.833,291.833 361.5,290.5C 360.522,290.977 359.689,291.643 359,292.5C 358.581,291.328 357.915,290.328 357,289.5C 352.398,295.157 351.064,294.824 353,288.5C 349.703,290.795 346.703,293.462 344,296.5C 343,300.167 342,303.833 341,307.5C 339.884,310.756 338.051,313.422 335.5,315.5C 334.698,314.048 334.198,312.382 334,310.5C 332.186,311.76 330.353,311.76 328.5,310.5C 329.836,308.625 329.336,307.292 327,306.5C 325.414,307.376 323.914,308.376 322.5,309.5C 321.304,308.441 320.637,307.107 320.5,305.5C 321.658,301.996 320.825,301.662 318,304.5C 317.883,301.207 318.05,297.873 318.5,294.5C 317.399,292.358 316.399,290.192 315.5,288C 318.734,284.855 321.734,281.522 324.5,278C 322.117,278.446 319.95,279.612 318,281.5C 319.578,277.886 322.078,274.719 325.5,272C 324.551,271.383 323.718,271.549 323,272.5C 322.03,270.726 321.196,268.893 320.5,267C 321.891,264.162 321.391,261.662 319,259.5C 318.333,260.167 317.667,260.833 317,261.5C 317.687,258.949 318.854,256.449 320.5,254C 318.613,253.837 317.113,254.671 316,256.5C 316.994,252.462 319.327,249.128 323,246.5C 323.684,245.216 323.517,244.049 322.5,243C 323.951,243.263 325.284,243.096 326.5,242.5C 324.671,240.844 323.337,238.844 322.5,236.5C 325.391,235.322 328.391,234.655 331.5,234.5 Z"/></g>
<g><path style="opacity:0.979" fill="#0b92f7" d="M 59.5,235.5 C 63.8524,235.846 67.5191,237.512 70.5,240.5C 70.6633,242.857 70.4966,245.19 70,247.5C 69.0164,245.205 68.1831,245.539 67.5,248.5C 68.09,249.799 69.09,250.632 70.5,251C 69.13,252.441 68.13,254.108 67.5,256C 69.6383,259.185 70.9716,262.685 71.5,266.5C 70.2272,268.984 70.2272,271.484 71.5,274C 70.7827,275.531 69.7827,276.864 68.5,278C 69.7856,280.569 70.7856,283.236 71.5,286C 70.5026,290.138 70.336,294.304 71,298.5C 71.2568,296.705 71.9235,294.705 73,292.5C 73.3333,292.833 73.6667,293.167 74,293.5C 75.0911,300.396 75.5911,307.062 75.5,313.5C 73.1698,315.667 70.5032,317.334 67.5,318.5C 67.628,316.345 67.128,314.345 66,312.5C 63.2324,311.792 62.3991,310.292 63.5,308C 62.6667,307.167 61.8333,306.333 61,305.5C 60.502,302.518 60.3354,299.518 60.5,296.5C 59.448,296.649 58.448,296.483 57.5,296C 59.0454,294.178 59.712,292.011 59.5,289.5C 58.4134,277.455 57.7467,265.455 57.5,253.5C 58.3443,249.789 59.3443,246.123 60.5,242.5C 59.6372,240.128 58.4705,240.128 57,242.5C 53.3537,238.776 54.187,236.443 59.5,235.5 Z"/></g>
<g><path style="opacity:0.996" fill="#06c1d0" d="M 176.5,234.5 C 181.152,234.998 185.819,235.331 190.5,235.5C 190.611,236.117 190.944,236.617 191.5,237C 187.915,238.603 187.582,240.769 190.5,243.5C 189.167,246.5 189.167,249.5 190.5,252.5C 188.642,254.524 186.975,256.691 185.5,259C 186.475,264.057 187.308,268.89 188,273.5C 188.333,271.833 188.667,270.167 189,268.5C 189.374,269.416 189.874,270.25 190.5,271C 190.38,274.651 189.88,278.484 189,282.5C 188.581,278.148 187.914,277.815 187,281.5C 186.816,295.545 186.316,309.545 185.5,323.5C 186.63,324.622 187.297,325.956 187.5,327.5C 186.521,330.625 186.187,333.958 186.5,337.5C 186.539,338.756 186.039,339.756 185,340.5C 184.333,339.167 183.667,337.833 183,336.5C 182.626,337.416 182.126,338.25 181.5,339C 184.472,345.277 184.139,351.277 180.5,357C 181.557,363.789 182.223,370.622 182.5,377.5C 183.5,377.5 184.5,377.5 185.5,377.5C 185.298,379.989 185.798,382.323 187,384.5C 188.471,382.098 189.971,382.264 191.5,385C 190.426,385.739 189.759,386.739 189.5,388C 190.649,389.73 190.649,391.396 189.5,393C 191.376,394.017 193.376,394.851 195.5,395.5C 190.349,396.167 185.349,396.834 180.5,397.5C 174.495,397.671 169.162,396.004 164.5,392.5C 167.881,392.46 171.214,392.793 174.5,393.5C 173.904,389.642 172.238,386.309 169.5,383.5C 170.866,384.202 172.533,384.202 174.5,383.5C 173.828,370.878 173.828,358.211 174.5,345.5C 173.325,345.719 172.325,345.386 171.5,344.5C 173.207,342.358 174.041,340.025 174,337.5C 173.444,339.595 172.944,339.762 172.5,338C 173.953,334.928 175.787,332.095 178,329.5C 179,322.5 180,315.5 181,308.5C 181.273,306.671 182.107,305.171 183.5,304C 182.572,303.612 181.905,302.945 181.5,302C 182.62,300.263 183.62,298.429 184.5,296.5C 182.728,292.57 181.562,292.903 181,297.5C 180.489,295.122 179.822,292.788 179,290.5C 178.24,292.497 177.74,294.163 177.5,295.5C 176.334,284.515 176.168,273.515 177,262.5C 177.333,263.167 177.667,263.833 178,264.5C 178.333,260.5 178.667,256.5 179,252.5C 180.167,251.333 181.333,250.167 182.5,249C 181.426,248.261 180.759,247.261 180.5,246C 181.493,243.547 181.66,241.047 181,238.5C 179.508,237.08 178.008,235.746 176.5,234.5 Z"/></g>
<g><path style="opacity:0.966" fill="#26e491" d="M 312.5,236.5 C 312.611,237.117 312.944,237.617 313.5,238C 312.241,238.923 310.908,239.757 309.5,240.5C 307.517,246.387 308.517,247.387 312.5,243.5C 313.59,244.391 313.59,245.391 312.5,246.5C 308.139,251.193 303.805,255.859 299.5,260.5C 299.595,265.414 299.761,270.414 300,275.5C 301.232,272.7 301.899,269.7 302,266.5C 302.243,271.098 302.41,275.598 302.5,280C 299.837,284.125 299.003,288.625 300,293.5C 300.471,291.754 301.138,290.087 302,288.5C 302.333,290.833 302.667,293.167 303,295.5C 303.92,292.899 304.587,290.232 305,287.5C 305.767,291.558 305.6,295.558 304.5,299.5C 305.582,299.749 306.915,299.915 308.5,300C 306.993,300.837 306.493,302.004 307,303.5C 314.816,304.197 315.316,306.864 308.5,311.5C 307.653,309.939 307.986,308.439 309.5,307C 305.278,307.266 303.945,309.432 305.5,313.5C 309.599,316.202 313.599,318.869 317.5,321.5C 305.237,319.877 295.904,313.877 289.5,303.5C 288.844,295.364 287.178,287.531 284.5,280C 285.159,277.538 285.493,275.038 285.5,272.5C 284.325,272.719 283.325,272.386 282.5,271.5C 283.824,270.065 285.49,269.065 287.5,268.5C 287.023,267.522 286.357,266.689 285.5,266C 288.28,264.188 290.78,262.021 293,259.5C 293.012,255.727 294.179,252.394 296.5,249.5C 296.154,248.304 295.654,248.304 295,249.5C 294.333,248.167 293.667,246.833 293,245.5C 291.844,246.993 291.01,246.826 290.5,245C 291.695,243.467 291.695,241.967 290.5,240.5C 292.003,239.948 293.669,239.948 295.5,240.5C 297.39,240.297 298.89,240.963 300,242.5C 303.452,239.024 307.619,237.024 312.5,236.5 Z"/></g>
<g><path style="opacity:0.99" fill="#0a9ef4" d="M 85.5,236.5 C 87.5563,237.216 89.723,237.883 92,238.5C 92.6514,240.235 92.4847,241.902 91.5,243.5C 92.2739,244.711 93.1072,244.711 94,243.5C 94.1667,244 94.3333,244.5 94.5,245C 93.7113,246.626 92.7113,248.126 91.5,249.5C 92.868,250.594 94.0347,250.26 95,248.5C 94.8446,250.811 94.8446,253.144 95,255.5C 95.5079,253.096 96.6745,252.429 98.5,253.5C 95.6392,257.862 92.6392,262.195 89.5,266.5C 88.2638,265.754 86.9305,265.421 85.5,265.5C 85.5,266.5 85.5,267.5 85.5,268.5C 81.4159,264.72 80.0826,260.053 81.5,254.5C 79.8333,251.833 78.1667,249.167 76.5,246.5C 76.8333,245.833 77.1667,245.167 77.5,244.5C 75.1526,243.849 73.4859,242.516 72.5,240.5C 73.2646,240.923 74.0979,241.257 75,241.5C 78.3089,239.429 81.8089,237.762 85.5,236.5 Z"/></g>
<g><path style="opacity:0.973" fill="#0487f8" d="M 47.5,321.5 C 47.5743,319.589 48.5743,318.422 50.5,318C 49.2068,317.51 47.8734,317.343 46.5,317.5C 45.2628,313.503 45.2628,309.503 46.5,305.5C 46.4712,303.971 45.8045,302.804 44.5,302C 45.3567,301.311 46.0233,300.478 46.5,299.5C 44.904,292.721 41.404,287.054 36,282.5C 36.4087,280.775 36.2421,279.108 35.5,277.5C 32.9736,279.919 31.1403,279.253 30,275.5C 29.6927,270.118 29.026,264.785 28,259.5C 24.9946,256.988 22.4946,253.988 20.5,250.5C 21.2485,248.668 22.2485,247.001 23.5,245.5C 23,245.167 22.5,244.833 22,244.5C 19.3512,246.571 16.5179,248.238 13.5,249.5C 13.8588,247.629 14.8588,246.129 16.5,245C 19.672,243.248 22.672,241.248 25.5,239C 27.0249,237.991 28.6916,237.491 30.5,237.5C 35.2142,237.647 39.8809,237.314 44.5,236.5C 44.0807,239.325 45.0807,241.491 47.5,243C 44.9557,244.775 44.9557,246.608 47.5,248.5C 46.5721,249.768 46.4054,251.101 47,252.5C 47.5354,254.271 48.3687,254.604 49.5,253.5C 48.5153,251.902 48.3486,250.235 49,248.5C 49.6667,249.167 50.3333,249.833 51,250.5C 51.2414,253.289 51.908,255.956 53,258.5C 53.3333,257.833 53.6667,257.167 54,256.5C 55.2208,257.774 56.0541,259.274 56.5,261C 54.1424,265.502 53.4758,270.169 54.5,275C 52.6169,278.409 50.9502,281.242 49.5,283.5C 50.6145,285.733 50.6145,287.899 49.5,290C 50.7659,290.309 51.9326,290.809 53,291.5C 54.2152,298.51 55.3819,305.51 56.5,312.5C 55.2655,314.398 55.5989,316.065 57.5,317.5C 54.9538,320.576 51.6205,321.909 47.5,321.5 Z"/></g>
<g><path style="opacity:0.994" fill="#0c98f4" d="M 70.5,240.5 C 71.1667,240.5 71.8333,240.5 72.5,240.5C 73.4859,242.516 75.1526,243.849 77.5,244.5C 77.1667,245.167 76.8333,245.833 76.5,246.5C 78.1667,249.167 79.8333,251.833 81.5,254.5C 80.0826,260.053 81.4159,264.72 85.5,268.5C 83.704,274.106 82.704,279.94 82.5,286C 82.8333,288.167 83.1667,290.333 83.5,292.5C 84.1667,292.167 84.8333,291.833 85.5,291.5C 86.7115,293.841 86.3782,296.007 84.5,298C 85.0659,298.995 85.7326,299.828 86.5,300.5C 83.9536,305.719 80.2869,310.052 75.5,313.5C 75.5911,307.062 75.0911,300.396 74,293.5C 73.6667,293.167 73.3333,292.833 73,292.5C 71.9235,294.705 71.2568,296.705 71,298.5C 70.336,294.304 70.5026,290.138 71.5,286C 70.7856,283.236 69.7856,280.569 68.5,278C 69.7827,276.864 70.7827,275.531 71.5,274C 70.2272,271.484 70.2272,268.984 71.5,266.5C 70.9716,262.685 69.6383,259.185 67.5,256C 68.13,254.108 69.13,252.441 70.5,251C 69.09,250.632 68.09,249.799 67.5,248.5C 68.1831,245.539 69.0164,245.205 70,247.5C 70.4966,245.19 70.6633,242.857 70.5,240.5 Z"/></g>
<g><path style="opacity:0.996" fill="#1083f8" d="M 47.5,321.5 C 45.8333,321.5 44.1667,321.5 42.5,321.5C 41.5,321.5 40.5,321.5 39.5,321.5C 38.828,320.733 37.9947,320.066 37,319.5C 36.4142,310.824 34.4142,302.49 31,294.5C 26.8097,290.739 22.143,287.739 17,285.5C 13.4798,286.437 9.97983,287.437 6.5,288.5C 6.44563,286.368 5.44563,285.035 3.5,284.5C 1.39651,271.243 4.72984,259.576 13.5,249.5C 16.5179,248.238 19.3512,246.571 22,244.5C 22.5,244.833 23,245.167 23.5,245.5C 22.2485,247.001 21.2485,248.668 20.5,250.5C 22.4946,253.988 24.9946,256.988 28,259.5C 29.026,264.785 29.6927,270.118 30,275.5C 31.1403,279.253 32.9736,279.919 35.5,277.5C 36.2421,279.108 36.4087,280.775 36,282.5C 41.404,287.054 44.904,292.721 46.5,299.5C 46.0233,300.478 45.3567,301.311 44.5,302C 45.8045,302.804 46.4712,303.971 46.5,305.5C 45.2628,309.503 45.2628,313.503 46.5,317.5C 47.8734,317.343 49.2068,317.51 50.5,318C 48.5743,318.422 47.5743,319.589 47.5,321.5 Z"/></g>
<g><path style="opacity:0.981" fill="#2bf284" d="M 358.5,247.5 C 363.209,250.562 366.209,254.896 367.5,260.5C 366.582,262.82 365.248,264.987 363.5,267C 364.675,269.838 364.509,272.671 363,275.5C 362.333,271.5 361.667,267.5 361,263.5C 360.26,269.158 359.594,274.825 359,280.5C 357.305,283.695 354.805,286.028 351.5,287.5C 350.682,285.892 350.015,284.225 349.5,282.5C 352.333,280.493 353.833,277.826 354,274.5C 350.7,278.16 347.2,281.493 343.5,284.5C 339.397,281.296 339.563,278.296 344,275.5C 344.595,274.101 344.428,272.768 343.5,271.5C 343.977,270.522 344.643,269.689 345.5,269C 343.039,269.408 340.706,270.074 338.5,271C 340.283,269.261 341.95,267.428 343.5,265.5C 342.691,263.929 342.357,262.262 342.5,260.5C 340.549,260.773 339.049,260.107 338,258.5C 338.449,255.437 338.616,252.437 338.5,249.5C 339.5,250.167 340.5,250.833 341.5,251.5C 343.263,250.046 344.597,250.38 345.5,252.5C 343.263,253.132 341.597,254.465 340.5,256.5C 341.218,257.137 342.218,257.137 343.5,256.5C 344.647,256.818 345.481,257.484 346,258.5C 346.333,257.167 346.667,255.833 347,254.5C 347.689,255.357 348.522,256.023 349.5,256.5C 350.167,254.167 350.833,251.833 351.5,249.5C 352.325,253.122 352.825,256.789 353,260.5C 352.682,255.147 354.516,250.814 358.5,247.5 Z"/></g>
<g><path style="opacity:0.989" fill="#52a2fc" d="M 3.5,284.5 C 5.44563,285.035 6.44563,286.368 6.5,288.5C 10.4557,290.749 14.7891,292.249 19.5,293C 26.5159,297.527 30.0159,304.027 30,312.5C 30.3333,312.167 30.6667,311.833 31,311.5C 31.3143,314.962 32.481,317.962 34.5,320.5C 30.5686,319.868 27.2353,318.201 24.5,315.5C 24.9382,315.565 25.2716,315.399 25.5,315C 24.7178,312.26 24.2178,309.426 24,306.5C 19.8378,300.17 14.0045,296.504 6.5,295.5C 4.7261,292.074 3.7261,288.407 3.5,284.5 Z"/></g>
<g><path style="opacity:0.98" fill="#3092fc" d="M 39.5,321.5 C 37.7085,321.634 36.0418,321.301 34.5,320.5C 32.481,317.962 31.3143,314.962 31,311.5C 30.6667,311.833 30.3333,312.167 30,312.5C 30.0159,304.027 26.5159,297.527 19.5,293C 14.7891,292.249 10.4557,290.749 6.5,288.5C 9.97983,287.437 13.4798,286.437 17,285.5C 22.143,287.739 26.8097,290.739 31,294.5C 34.4142,302.49 36.4142,310.824 37,319.5C 37.9947,320.066 38.828,320.733 39.5,321.5 Z"/></g>
<g><path style="opacity:0.997" fill="#56f99d" d="M 370.5,286.5 C 370.106,290.347 369.106,294.014 367.5,297.5C 363.999,295.256 360.332,295.256 356.5,297.5C 355.653,298.845 354.487,299.845 353,300.5C 352.51,301.793 352.343,303.127 352.5,304.5C 351.5,304.5 350.5,304.5 349.5,304.5C 349.089,307.553 348.423,310.553 347.5,313.5C 348.193,314.518 348.859,315.518 349.5,316.5C 341.105,321.046 332.105,323.046 322.5,322.5C 326.176,321.322 329.843,319.822 333.5,318C 334.381,317.292 335.047,316.458 335.5,315.5C 338.051,313.422 339.884,310.756 341,307.5C 342,303.833 343,300.167 344,296.5C 346.703,293.462 349.703,290.795 353,288.5C 351.064,294.824 352.398,295.157 357,289.5C 357.915,290.328 358.581,291.328 359,292.5C 359.689,291.643 360.522,290.977 361.5,290.5C 362.833,291.833 364.167,291.833 365.5,290.5C 366.167,288.833 366.833,287.167 367.5,285.5C 368.417,286.127 369.417,286.461 370.5,286.5 Z"/></g>
<g><path style="opacity:0.962" fill="#74b3fa" d="M 6.5,295.5 C 14.0045,296.504 19.8378,300.17 24,306.5C 24.2178,309.426 24.7178,312.26 25.5,315C 25.2716,315.399 24.9382,315.565 24.5,315.5C 16.0518,311.051 10.0518,304.384 6.5,295.5 Z"/></g>
<g><path style="opacity:0.968" fill="#77fab1" d="M 367.5,297.5 C 362.879,305.122 356.879,311.455 349.5,316.5C 348.859,315.518 348.193,314.518 347.5,313.5C 348.423,310.553 349.089,307.553 349.5,304.5C 350.5,304.5 351.5,304.5 352.5,304.5C 352.343,303.127 352.51,301.793 353,300.5C 354.487,299.845 355.653,298.845 356.5,297.5C 360.332,295.256 363.999,295.256 367.5,297.5 Z"/></g>
<g><path style="opacity:0.971" fill="#19d0c4" d="M 204.5,310.5 C 204.351,311.552 204.517,312.552 205,313.5C 207.824,314.818 210.324,316.485 212.5,318.5C 212.863,320.911 211.863,322.411 209.5,323C 212.095,324.72 213.595,327.22 214,330.5C 214.253,335.039 214.753,339.539 215.5,344C 214.777,346.553 213.444,348.72 211.5,350.5C 212.347,351.845 213.513,352.845 215,353.5C 217.041,357.737 217.875,362.07 217.5,366.5C 216.914,366.291 216.414,365.957 216,365.5C 215.51,366.793 215.343,368.127 215.5,369.5C 217.592,369.561 219.092,370.561 220,372.5C 222.442,368.562 224.942,368.562 227.5,372.5C 225.917,379.674 221.917,385.007 215.5,388.5C 215.5,388.167 215.5,387.833 215.5,387.5C 216.422,383.518 214.922,381.184 211,380.5C 208.148,375.828 206.814,370.828 207,365.5C 207.414,365.957 207.914,366.291 208.5,366.5C 209.429,365.311 209.762,363.978 209.5,362.5C 208.07,362.421 206.736,362.754 205.5,363.5C 205.167,362.167 204.833,360.833 204.5,359.5C 205.671,355.32 205.671,351.154 204.5,347C 204.741,345.016 205.408,343.183 206.5,341.5C 204.312,339.245 204.646,337.078 207.5,335C 206.049,335.263 204.716,335.096 203.5,334.5C 203.709,333.914 204.043,333.414 204.5,333C 202.393,331.736 201.393,329.903 201.5,327.5C 202.873,327.657 204.207,327.49 205.5,327C 203.935,323.019 202.268,319.019 200.5,315C 200.617,312.384 201.95,310.884 204.5,310.5 Z"/></g>
<g><path style="opacity:0.967" fill="#1dd2c0" d="M 212.5,318.5 C 222.206,324.063 228.373,332.396 231,343.5C 232.299,349.119 232.632,354.786 232,360.5C 231.559,365 230.059,369 227.5,372.5C 224.942,368.562 222.442,368.562 220,372.5C 219.092,370.561 217.592,369.561 215.5,369.5C 215.343,368.127 215.51,366.793 216,365.5C 216.414,365.957 216.914,366.291 217.5,366.5C 217.875,362.07 217.041,357.737 215,353.5C 213.513,352.845 212.347,351.845 211.5,350.5C 213.444,348.72 214.777,346.553 215.5,344C 214.753,339.539 214.253,335.039 214,330.5C 213.595,327.22 212.095,324.72 209.5,323C 211.863,322.411 212.863,320.911 212.5,318.5 Z"/></g>
<g><path style="opacity:0.983" fill="#14bcdc" d="M 156.5,386.5 C 141.992,372.838 138.158,356.504 145,337.5C 147.31,330.838 151.476,325.838 157.5,322.5C 159.745,321.365 162.078,320.865 164.5,321C 161.449,323.714 158.782,326.714 156.5,330C 157.424,331.811 158.257,331.645 159,329.5C 159.807,335.416 159.641,341.25 158.5,347C 158.833,347.167 159.167,347.333 159.5,347.5C 160.761,343.939 161.594,340.272 162,336.5C 162.333,348.833 162.667,361.167 163,373.5C 163.333,373.833 163.667,374.167 164,374.5C 164.667,372.5 165.333,370.5 166,368.5C 166.579,373.527 166.913,378.527 167,383.5C 166.529,381.754 165.862,380.087 165,378.5C 164.503,381.146 164.336,383.813 164.5,386.5C 161.833,386.5 159.167,386.5 156.5,386.5 Z"/></g>
<g><path style="opacity:0.961" fill="#11c5ca" d="M 186.5,337.5 C 188.173,338.343 189.34,339.676 190,341.5C 190.413,344.232 191.08,346.899 192,349.5C 192.451,347.071 193.285,346.904 194.5,349C 193.398,351.401 193.231,353.901 194,356.5C 195.122,357.913 196.288,358.746 197.5,359C 196.438,362.789 196.271,366.623 197,370.5C 199.023,376.64 201.189,382.64 203.5,388.5C 205.199,388.66 206.866,388.494 208.5,388C 210.017,386.315 211.684,384.815 213.5,383.5C 214.172,384.949 214.839,386.282 215.5,387.5C 215.5,387.833 215.5,388.167 215.5,388.5C 205.286,397.303 193.619,400.303 180.5,397.5C 185.349,396.834 190.349,396.167 195.5,395.5C 193.376,394.851 191.376,394.017 189.5,393C 190.649,391.396 190.649,389.73 189.5,388C 189.759,386.739 190.426,385.739 191.5,385C 189.971,382.264 188.471,382.098 187,384.5C 185.798,382.323 185.298,379.989 185.5,377.5C 184.5,377.5 183.5,377.5 182.5,377.5C 182.223,370.622 181.557,363.789 180.5,357C 184.139,351.277 184.472,345.277 181.5,339C 182.126,338.25 182.626,337.416 183,336.5C 183.667,337.833 184.333,339.167 185,340.5C 186.039,339.756 186.539,338.756 186.5,337.5 Z"/></g>
</svg>
